<svg xmlns="http://www.w3.org/2000/svg" xmlns:xlink="http://www.w3.org/1999/xlink" xmlns:lucid="lucid" width="1532.5" height="1288.05"><g transform="translate(-214 0)" lucid:page-tab-id="0_0"><path d="M0 0h1804.1v1278.34H0z" fill="#fff"/><path d="M761.2 28c0-4.42 3.6-8 8-8H1290c4.4 0 8 3.58 8 8v24c0 4.42-3.6 8-8 8H769.2c-4.4 0-8-3.58-8-8z" stroke="#000" stroke-opacity="0" stroke-width="2" fill="#fff" fill-opacity="0"/><use xlink:href="#a" transform="matrix(1,0,0,1,765.2052958323593,24) translate(227.85753086419754 25.657777777777778)"/><path d="M768.72 58.7h521.75M768.75 58.7h-4.03M1290.45 58.7h4.02" stroke="#b2b2b2" stroke-width="2" fill="none"/><path d="M760.6 68c0-4.42 3.58-8 8-8H1290c4.4 0 8 3.58 8 8v24c0 4.42-3.6 8-8 8H768.6c-4.42 0-8-3.58-8-8z" stroke="#000" stroke-opacity="0" stroke-width="2" fill="#fff" fill-opacity="0"/><use xlink:href="#b" transform="matrix(1,0,0,1,764.6026479161796,64) translate(175.9798559670782 19.042037037037037)"/><use xlink:href="#c" transform="matrix(1,0,0,1,764.6026479161796,64) translate(253.99096707818933 19.042037037037037)"/><use xlink:href="#d" transform="matrix(1,0,0,1,764.6026479161796,64) translate(266.44045267489713 19.042037037037037)"/><use xlink:href="#e" transform="matrix(1,0,0,1,764.6026479161796,64) translate(301.1545473251029 19.042037037037037)"/><use xlink:href="#f" transform="matrix(1,0,0,1,764.6026479161796,64) translate(326.6483744855967 19.042037037037037)"/><path d="M1079.75 107.94h268.2v200h-268.2z" fill="#fff"/><path d="M1079.75 107.94h268.2v200h-268.2zM1079.75 147.94h268.2M1129.2 147.94v160M1256.18 147.94v160" stroke="#000" fill="none"/><use xlink:href="#g" transform="matrix(1,0,0,1,1089.7460782647318,107.93671407887311) translate(92.55 23.6)"/><use xlink:href="#h" transform="matrix(1,0,0,1,1084.7460782647318,150.4367140788731) translate(8 17.1)"/><use xlink:href="#i" transform="matrix(1,0,0,1,1134.1882551354802,150.4367140788731) translate(0 17.1)"/><use xlink:href="#j" transform="matrix(1,0,0,1,1261.1772168132945,150.4367140788731) translate(0 17.1)"/><use xlink:href="#k" transform="matrix(1,0,0,1,1084.7460782647318,182.4367140788731) translate(8.524999999999999 17.1)"/><use xlink:href="#l" transform="matrix(1,0,0,1,1134.1882551354802,182.4367140788731) translate(0 17.1)"/><use xlink:href="#m" transform="matrix(1,0,0,1,1261.1772168132945,182.4367140788731) translate(0 17.1)"/><use xlink:href="#k" transform="matrix(1,0,0,1,1084.7460782647318,214.4367140788731) translate(8.524999999999999 17.1)"/><use xlink:href="#n" transform="matrix(1,0,0,1,1134.1882551354802,214.4367140788731) translate(0 17.1)"/><use xlink:href="#j" transform="matrix(1,0,0,1,1261.1772168132945,214.4367140788731) translate(0 17.1)"/><use xlink:href="#o" transform="matrix(1,0,0,1,1084.7460782647318,246.4367140788731) translate(8.524999999999999 17.1)"/><use xlink:href="#p" transform="matrix(1,0,0,1,1134.1882551354802,246.4367140788731) translate(0 17.1)"/><use xlink:href="#q" transform="matrix(1,0,0,1,1261.1772168132945,246.4367140788731) translate(0 17.1)"/><use xlink:href="#k" transform="matrix(1,0,0,1,1084.7460782647318,278.43671407887314) translate(8.524999999999999 17.1)"/><use xlink:href="#r" transform="matrix(1,0,0,1,1134.1882551354802,278.43671407887314) translate(0 17.1)"/><use xlink:href="#s" transform="matrix(1,0,0,1,1261.1772168132945,278.43671407887314) translate(0 17.1)"/><path d="M659.75 360h320v264h-320z" fill="#fff"/><path d="M659.75 360h320v264h-320zM659.75 400h320M707.6 400v224M888.55 400v224" stroke="#000" fill="none"/><use xlink:href="#t" transform="matrix(1,0,0,1,669.7460782647319,360) translate(114.55 23.6)"/><use xlink:href="#h" transform="matrix(1,0,0,1,664.7460782647319,402.5) translate(7 17.1)"/><use xlink:href="#i" transform="matrix(1,0,0,1,712.6100238429632,402.5) translate(0 17.1)"/><use xlink:href="#j" transform="matrix(1,0,0,1,893.5487993531673,402.5) translate(0 17.1)"/><use xlink:href="#u" transform="matrix(1,0,0,1,712.6100238429632,434.5) translate(0 17.1)"/><use xlink:href="#v" transform="matrix(1,0,0,1,893.5487993531673,434.5) translate(0 17.1)"/><use xlink:href="#w" transform="matrix(1,0,0,1,712.6100238429632,466.5) translate(0 17.1)"/><use xlink:href="#v" transform="matrix(1,0,0,1,893.5487993531673,466.5) translate(0 17.1)"/><use xlink:href="#x" transform="matrix(1,0,0,1,712.6100238429632,498.5) translate(0 17.1)"/><use xlink:href="#v" transform="matrix(1,0,0,1,893.5487993531673,498.5) translate(0 17.1)"/><use xlink:href="#y" transform="matrix(1,0,0,1,712.6100238429632,530.5) translate(0 17.1)"/><use xlink:href="#v" transform="matrix(1,0,0,1,893.5487993531673,530.5) translate(0 17.1)"/><use xlink:href="#z" transform="matrix(1,0,0,1,712.6100238429632,562.5) translate(0 17.1)"/><use xlink:href="#A" transform="matrix(1,0,0,1,893.5487993531673,562.5) translate(0 17.1)"/><use xlink:href="#k" transform="matrix(1,0,0,1,664.7460782647319,594.5) translate(7.524999999999999 17.1)"/><use xlink:href="#B" transform="matrix(1,0,0,1,712.6100238429632,594.5) translate(0 17.1)"/><use xlink:href="#j" transform="matrix(1,0,0,1,893.5487993531673,594.5) translate(0 17.1)"/><path d="M659.75 660h300v200h-300z" fill="#fff"/><path d="M659.75 660h300v200h-300zM659.75 700h300M707.26 700v160M884.3 700v160" stroke="#000" fill="none"/><use xlink:href="#C" transform="matrix(1,0,0,1,669.7460782647319,660) translate(114.05 23.6)"/><use xlink:href="#h" transform="matrix(1,0,0,1,664.7460782647319,702.5) translate(7 17.1)"/><use xlink:href="#i" transform="matrix(1,0,0,1,712.2562823463646,702.5) translate(0 17.1)"/><use xlink:href="#j" transform="matrix(1,0,0,1,889.3039013939837,702.5) translate(0 17.1)"/><use xlink:href="#D" transform="matrix(1,0,0,1,712.2562823463646,766.5) translate(0 17.1)"/><use xlink:href="#E" transform="matrix(1,0,0,1,889.3039013939837,766.5) translate(0 17.1)"/><use xlink:href="#F" transform="matrix(1,0,0,1,712.2562823463646,798.5) translate(0 17.1)"/><use xlink:href="#G" transform="matrix(1,0,0,1,889.3039013939837,798.5) translate(0 17.1)"/><use xlink:href="#H" transform="matrix(1,0,0,1,712.2562823463646,830.5) translate(0 17.1)"/><use xlink:href="#I" transform="matrix(1,0,0,1,889.3039013939837,830.5) translate(0 17.1)"/><path d="M1000.25 416H1040V227.94h19.25" stroke="#000" fill="none"/><path d="M990.25 426v-20M980.25 416h20M1000.25 426v-20M1079.02 237.94l-20-10 20-10M1079.02 227.94h-20M1059.02 217.94v20" stroke="#000" fill="#fff"/><path d="M319.75 160.28h240v264h-240z" fill="#fff"/><path d="M319.75 160.28h240v264h-240zM319.75 200.28h240M357.08 200.28v224M484.82 200.28v224" stroke="#000" fill="none"/><use xlink:href="#J" transform="matrix(1,0,0,1,329.74607826473186,160.2789115646258) translate(91.025 23.6)"/><use xlink:href="#h" transform="matrix(1,0,0,1,324.74607826473186,202.7789115646258) translate(2 17.1)"/><use xlink:href="#i" transform="matrix(1,0,0,1,362.07941159806524,202.7789115646258) translate(0 17.1)"/><use xlink:href="#j" transform="matrix(1,0,0,1,489.8189268328359,202.7789115646258) translate(0 17.1)"/><use xlink:href="#k" transform="matrix(1,0,0,1,324.74607826473186,234.7789115646258) translate(2.5249999999999986 17.1)"/><use xlink:href="#l" transform="matrix(1,0,0,1,362.07941159806524,234.7789115646258) translate(0 17.1)"/><use xlink:href="#j" transform="matrix(1,0,0,1,489.8189268328359,234.7789115646258) translate(0 17.1)"/><use xlink:href="#k" transform="matrix(1,0,0,1,324.74607826473186,266.7789115646258) translate(2.5249999999999986 17.1)"/><use xlink:href="#K" transform="matrix(1,0,0,1,362.07941159806524,266.7789115646258) translate(0 17.1)"/><use xlink:href="#j" transform="matrix(1,0,0,1,489.8189268328359,266.7789115646258) translate(0 17.1)"/><use xlink:href="#k" transform="matrix(1,0,0,1,324.74607826473186,298.7789115646258) translate(2.5249999999999986 17.1)"/><use xlink:href="#n" transform="matrix(1,0,0,1,362.07941159806524,298.7789115646258) translate(0 17.1)"/><use xlink:href="#j" transform="matrix(1,0,0,1,489.8189268328359,298.7789115646258) translate(0 17.1)"/><use xlink:href="#k" transform="matrix(1,0,0,1,324.74607826473186,330.7789115646258) translate(2.5249999999999986 17.1)"/><use xlink:href="#L" transform="matrix(1,0,0,1,362.07941159806524,330.7789115646258) translate(0 17.1)"/><use xlink:href="#m" transform="matrix(1,0,0,1,489.8189268328359,330.7789115646258) translate(0 17.1)"/><use xlink:href="#k" transform="matrix(1,0,0,1,324.74607826473186,362.7789115646258) translate(2.5249999999999986 17.1)"/><use xlink:href="#M" transform="matrix(1,0,0,1,362.07941159806524,362.7789115646258) translate(0 17.1)"/><use xlink:href="#j" transform="matrix(1,0,0,1,489.8189268328359,362.7789115646258) translate(0 17.1)"/><use xlink:href="#k" transform="matrix(1,0,0,1,324.74607826473186,394.7789115646258) translate(2.5249999999999986 17.1)"/><use xlink:href="#N" transform="matrix(1,0,0,1,362.07941159806524,394.7789115646258) translate(0 17.1)"/><use xlink:href="#j" transform="matrix(1,0,0,1,489.8189268328359,394.7789115646258) translate(0 17.1)"/><path d="M319.75 1066.14h240v168h-240z" fill="#fff"/><path d="M319.75 1066.14h240v168h-240zM319.75 1106.14h240M359.75 1106.14v128M483 1106.14v128" stroke="#000" fill="none"/><use xlink:href="#O" transform="matrix(1,0,0,1,329.74607826473186,1066.1394557823126) translate(90.025 23.6)"/><use xlink:href="#h" transform="matrix(1,0,0,1,324.74607826473186,1108.6394557823126) translate(3 17.1)"/><use xlink:href="#i" transform="matrix(1,0,0,1,364.74607826473186,1108.6394557823126) translate(0 17.1)"/><use xlink:href="#j" transform="matrix(1,0,0,1,487.9878009539068,1108.6394557823126) translate(0 17.1)"/><use xlink:href="#o" transform="matrix(1,0,0,1,324.74607826473186,1140.6394557823126) translate(3.5249999999999986 17.1)"/><use xlink:href="#P" transform="matrix(1,0,0,1,364.74607826473186,1140.6394557823126) translate(0 17.1)"/><use xlink:href="#Q" transform="matrix(1,0,0,1,487.9878009539068,1140.6394557823126) translate(0 17.1)"/><use xlink:href="#o" transform="matrix(1,0,0,1,324.74607826473186,1172.6394557823126) translate(3.5249999999999986 17.1)"/><use xlink:href="#R" transform="matrix(1,0,0,1,364.74607826473186,1172.6394557823126) translate(0 17.1)"/><use xlink:href="#S" transform="matrix(1,0,0,1,487.9878009539068,1172.6394557823126) translate(0 17.1)"/><use xlink:href="#k" transform="matrix(1,0,0,1,324.74607826473186,1204.6394557823126) translate(3.5249999999999986 17.1)"/><use xlink:href="#l" transform="matrix(1,0,0,1,364.74607826473186,1204.6394557823126) translate(0 17.1)"/><use xlink:href="#j" transform="matrix(1,0,0,1,487.9878009539068,1204.6394557823126) translate(0 17.1)"/><path d="M1100 551.5h240v232h-240z" fill="#fff"/><path d="M1100 551.5h240v232h-240zM1100 591.5h240M1147.86 591.5v192M1255.73 591.5v192" stroke="#000" fill="none"/><use xlink:href="#B" transform="matrix(1,0,0,1,1110,551.5114795918363) translate(64.05 23.6)"/><use xlink:href="#h" transform="matrix(1,0,0,1,1105,594.0114795918363) translate(7 17.1)"/><use xlink:href="#i" transform="matrix(1,0,0,1,1152.8639455782313,594.0114795918363) translate(0 17.1)"/><use xlink:href="#j" transform="matrix(1,0,0,1,1260.7278911564626,594.0114795918363) translate(0 17.1)"/><use xlink:href="#u" transform="matrix(1,0,0,1,1152.8639455782313,626.0114795918363) translate(0 17.1)"/><use xlink:href="#v" transform="matrix(1,0,0,1,1260.7278911564626,626.0114795918363) translate(0 17.1)"/><use xlink:href="#T" transform="matrix(1,0,0,1,1152.8639455782313,658.0114795918363) translate(0 17.1)"/><use xlink:href="#U" transform="matrix(1,0,0,1,1260.7278911564626,658.0114795918363) translate(0 17.1)"/><use xlink:href="#V" transform="matrix(1,0,0,1,1152.8639455782313,690.0114795918363) translate(0 17.1)"/><use xlink:href="#U" transform="matrix(1,0,0,1,1260.7278911564626,690.0114795918363) translate(0 17.1)"/><use xlink:href="#W" transform="matrix(1,0,0,1,1152.8639455782313,722.0114795918363) translate(0 17.1)"/><use xlink:href="#s" transform="matrix(1,0,0,1,1260.7278911564626,722.0114795918363) translate(0 17.1)"/><use xlink:href="#k" transform="matrix(1,0,0,1,1105,754.0114795918363) translate(7.524999999999999 17.1)"/><use xlink:href="#l" transform="matrix(1,0,0,1,1152.8639455782313,754.0114795918363) translate(0 17.1)"/><use xlink:href="#m" transform="matrix(1,0,0,1,1260.7278911564626,754.0114795918363) translate(0 17.1)"/><path d="M680 1068h230.58v136H680z" fill="#fff"/><path d="M680 1068h230.58v136H680zM680 1108h230.58M727.86 1108v96M828.73 1108v96" stroke="#000" fill="none"/><use xlink:href="#X" transform="matrix(1,0,0,1,690,1068) translate(72.55 23.6)"/><use xlink:href="#h" transform="matrix(1,0,0,1,685,1110.5) translate(7 17.1)"/><use xlink:href="#i" transform="matrix(1,0,0,1,732.8639455782313,1110.5) translate(0 17.1)"/><use xlink:href="#m" transform="matrix(1,0,0,1,833.7282110352126,1110.5) translate(0 17.1)"/><use xlink:href="#u" transform="matrix(1,0,0,1,732.8639455782313,1142.5) translate(0 17.1)"/><use xlink:href="#v" transform="matrix(1,0,0,1,833.7282110352126,1142.5) translate(0 17.1)"/><use xlink:href="#k" transform="matrix(1,0,0,1,685,1174.5) translate(7.524999999999999 17.1)"/><use xlink:href="#Y" transform="matrix(1,0,0,1,732.8639455782313,1174.5) translate(0 17.1)"/><use xlink:href="#m" transform="matrix(1,0,0,1,833.7282110352126,1174.5) translate(0 17.1)"/><path d="M580.25 1186.14h39.62V1124h39.63" stroke="#000" fill="none"/><path d="M560.47 1176.14l20 10-20 10M560.47 1186.14h20M580.47 1196.14v-20M669.5 1114v20M679.5 1124h-20M659.5 1114v20" stroke="#000" fill="#fff"/><path d="M1479.75 442.74H1700v168h-220.25z" fill="#fff"/><path d="M1479.75 442.74H1700v168h-220.25zM1479.75 482.74H1700M1517.08 482.74v128M1632 482.74v128" stroke="#000" fill="none"/><use xlink:href="#Z" transform="matrix(1,0,0,1,1489.7460782647318,442.74404761904754) translate(55.525 23.6)"/><use xlink:href="#h" transform="matrix(1,0,0,1,1484.7460782647318,485.24404761904754) translate(2 17.1)"/><use xlink:href="#i" transform="matrix(1,0,0,1,1522.0794115980652,485.24404761904754) translate(0 17.1)"/><use xlink:href="#s" transform="matrix(1,0,0,1,1637,485.24404761904754) translate(0 17.1)"/><use xlink:href="#aa" transform="matrix(1,0,0,1,1522.0794115980652,517.2440476190475) translate(0 17.1)"/><use xlink:href="#v" transform="matrix(1,0,0,1,1637,517.2440476190475) translate(0 17.1)"/><use xlink:href="#Z" transform="matrix(1,0,0,1,1522.0794115980652,549.2440476190475) translate(0 17.1)"/><use xlink:href="#ab" transform="matrix(1,0,0,1,1637,549.2440476190475) translate(0 17.1)"/><use xlink:href="#ac" transform="matrix(1,0,0,1,1522.0794115980652,581.2440476190475) translate(0 17.1)"/><use xlink:href="#s" transform="matrix(1,0,0,1,1637,581.2440476190475) translate(0 17.1)"/><path d="M1459.25 498.76h-38.73V227.94h-52.06" stroke="#000" fill="none"/><path d="M1469.25 488.76v20M1479.25 498.76h-20M1459.25 488.76v20M1348.68 217.94l20 10-20 10M1348.68 227.94h20M1368.68 237.94v-20" stroke="#000" fill="#fff"/><path d="M1000.25 608H1050v-.5h29.5" stroke="#000" fill="none"/><path d="M980.47 598l20 10-20 10M980.47 608h20M1000.47 618v-20M1089.5 597.5v20M1099.5 607.5h-20M1079.5 597.5v20" stroke="#000" fill="#fff"/><path d="M719.75 140h200v168h-200z" fill="#fff"/><path d="M719.75 140h200v168h-200zM719.75 180h200M757.08 180v128M851.75 180v128" stroke="#000" fill="none"/><use xlink:href="#ad" transform="matrix(1,0,0,1,729.7460782647319,140) translate(52.574999999999996 23.6)"/><use xlink:href="#h" transform="matrix(1,0,0,1,724.7460782647319,182.5) translate(2 17.1)"/><use xlink:href="#i" transform="matrix(1,0,0,1,762.0794115980652,182.5) translate(0 17.1)"/><use xlink:href="#m" transform="matrix(1,0,0,1,856.7460782647319,182.5) translate(0 17.1)"/><use xlink:href="#ae" transform="matrix(1,0,0,1,762.0794115980652,246.5) translate(0 17.1)"/><use xlink:href="#v" transform="matrix(1,0,0,1,856.7460782647319,246.5) translate(0 17.1)"/><use xlink:href="#af" transform="matrix(1,0,0,1,762.0794115980652,278.5) translate(0 17.1)"/><use xlink:href="#s" transform="matrix(1,0,0,1,856.7460782647319,278.5) translate(0 17.1)"/><path d="M1479.75 649.84h200v104h-200z" fill="#fff"/><path d="M1479.75 649.84h200v104h-200zM1479.75 689.84h200M1517.08 689.84v64M1611.75 689.84v64" stroke="#000" fill="none"/><use xlink:href="#ag" transform="matrix(1,0,0,1,1489.7460782647318,649.8371598639454) translate(64.5 23.6)"/><use xlink:href="#h" transform="matrix(1,0,0,1,1484.7460782647318,692.3371598639454) translate(2 17.1)"/><use xlink:href="#i" transform="matrix(1,0,0,1,1522.0794115980652,692.3371598639454) translate(0 17.1)"/><use xlink:href="#s" transform="matrix(1,0,0,1,1616.7460782647318,692.3371598639454) translate(0 17.1)"/><use xlink:href="#aa" transform="matrix(1,0,0,1,1522.0794115980652,724.3371598639454) translate(0 17.1)"/><use xlink:href="#v" transform="matrix(1,0,0,1,1616.7460782647318,724.3371598639454) translate(0 17.1)"/><path d="M1459.25 705.84H1400v-445.9h-31.54" stroke="#000" fill="none"/><path d="M1469.25 695.84v20M1479.25 705.84h-20M1459.25 695.84v20M1348.68 249.94l20 10-20 10M1348.68 259.94h20M1368.68 269.94v-20" stroke="#000" fill="#fff"/><path d="M940.25 196h59.5v-.06h59.5" stroke="#000" fill="none"/><path d="M930.25 206v-20M920.25 196h20M940.25 206v-20M1079.02 205.94l-20-10 20-10M1079.02 195.94h-20M1059.02 185.94v20" stroke="#000" fill="#fff"/><path d="M1100 815.67h240v136h-240z" fill="#fff"/><path d="M1100 815.67h240v136h-240zM1100 855.67h240M1137.33 855.67v96M1272 855.67v96" stroke="#000" fill="none"/><use xlink:href="#ah" transform="matrix(1,0,0,1,1110,815.6743197278909) translate(51.574999999999996 23.6)"/><use xlink:href="#h" transform="matrix(1,0,0,1,1105,858.1743197278909) translate(2 17.1)"/><use xlink:href="#i" transform="matrix(1,0,0,1,1142.3333333333335,858.1743197278909) translate(0 17.1)"/><use xlink:href="#m" transform="matrix(1,0,0,1,1277,858.1743197278909) translate(0 17.1)"/><use xlink:href="#k" transform="matrix(1,0,0,1,1105,890.1743197278909) translate(2.5249999999999986 17.1)"/><use xlink:href="#ai" transform="matrix(1,0,0,1,1142.3333333333335,890.1743197278909) translate(0 17.1)"/><use xlink:href="#j" transform="matrix(1,0,0,1,1277,890.1743197278909) translate(0 17.1)"/><use xlink:href="#k" transform="matrix(1,0,0,1,1105,922.1743197278909) translate(2.5249999999999986 17.1)"/><use xlink:href="#aj" transform="matrix(1,0,0,1,1142.3333333333335,922.1743197278909) translate(0 17.1)"/><use xlink:href="#j" transform="matrix(1,0,0,1,1277,922.1743197278909) translate(0 17.1)"/><path d="M1360.5 607.5h20v328.17h-20" stroke="#000" fill="none"/><path d="M1350.5 617.5v-20M1340.5 607.5h20M1360.5 617.5v-20M1340.72 925.67l20 10-20 10M1340.72 935.67h20M1360.72 945.67v-20" stroke="#000" fill="#fff"/><path d="M980.25 716H1040v187.67h39.5" stroke="#000" fill="none"/><path d="M970.25 726v-20M960.25 716h20M980.25 726v-20M1099.28 913.67l-20-10 20-10M1099.28 903.67h-20M1079.28 893.67v20" stroke="#000" fill="#fff"/><path d="M699.25 228.02h-59.5v20.26h-59.5" stroke="#000" fill="none"/><path d="M709.25 218.02v20M719.25 228.02h-20M699.25 218.02v20M560.47 238.28l20 10-20 10M560.47 248.28h20M580.47 258.28v-20" stroke="#000" fill="#fff"/><path d="M299.25 1122.14H240V280.28h59.83" stroke="#000" fill="none"/><path d="M309.25 1112.14v20M319.25 1122.14h-20M299.25 1112.14v20M319.02 290.28l-20-10 20-10M319.02 280.28h-20" stroke="#000" fill="#fff"/><path d="M299.25 1218.14H220V120.28h390V196h89.25" stroke="#000" fill="none"/><path d="M319.02 1228.14l-20-10 20-10M319.02 1218.14h-20M299.02 1208.14v20M709.25 186v20M719.25 196h-20M699.25 186v20" stroke="#000" fill="#fff"/><path d="M319.75 815.67h230.58v232H319.75z" fill="#fff"/><path d="M319.75 815.67h230.58v232H319.75zM319.75 855.67h230.58M367.6 855.67v192M475.83 855.67v192" stroke="#000" fill="none"/><use xlink:href="#ak" transform="matrix(1,0,0,1,329.74607826473186,815.6743197278909) translate(81.525 23.6)"/><use xlink:href="#h" transform="matrix(1,0,0,1,324.74607826473186,858.1743197278909) translate(7 17.1)"/><use xlink:href="#i" transform="matrix(1,0,0,1,372.6100238429632,858.1743197278909) translate(0 17.1)"/><use xlink:href="#m" transform="matrix(1,0,0,1,480.8290568728183,858.1743197278909) translate(0 17.1)"/><use xlink:href="#aa" transform="matrix(1,0,0,1,372.6100238429632,890.1743197278909) translate(0 17.1)"/><use xlink:href="#v" transform="matrix(1,0,0,1,480.8290568728183,890.1743197278909) translate(0 17.1)"/><use xlink:href="#al" transform="matrix(1,0,0,1,372.6100238429632,922.1743197278909) translate(0 17.1)"/><use xlink:href="#am" transform="matrix(1,0,0,1,480.8290568728183,922.1743197278909) translate(0 17.1)"/><use xlink:href="#an" transform="matrix(1,0,0,1,372.6100238429632,954.1743197278909) translate(0 17.1)"/><use xlink:href="#ao" transform="matrix(1,0,0,1,480.8290568728183,954.1743197278909) translate(0 17.1)"/><use xlink:href="#ap" transform="matrix(1,0,0,1,372.6100238429632,986.1743197278909) translate(0 17.1)"/><use xlink:href="#j" transform="matrix(1,0,0,1,480.8290568728183,986.1743197278909) translate(0 17.1)"/><use xlink:href="#aq" transform="matrix(1,0,0,1,372.6100238429632,1018.1743197278909) translate(0 17.1)"/><use xlink:href="#s" transform="matrix(1,0,0,1,480.8290568728183,1018.1743197278909) translate(0 17.1)"/><path d="M319.75 597.2h230.58v200H319.75z" fill="#fff"/><path d="M319.75 597.2h230.58v200H319.75zM319.75 637.2h230.58M367.6 637.2v160M481.08 637.2v160" stroke="#000" fill="none"/><use xlink:href="#ar" transform="matrix(1,0,0,1,329.74607826473186,597.2091836734692) translate(56.05 23.6)"/><use xlink:href="#h" transform="matrix(1,0,0,1,324.74607826473186,639.7091836734692) translate(7 17.1)"/><use xlink:href="#i" transform="matrix(1,0,0,1,372.6100238429632,639.7091836734692) translate(0 17.1)"/><use xlink:href="#j" transform="matrix(1,0,0,1,486.07941159806524,639.7091836734692) translate(0 17.1)"/><use xlink:href="#aq" transform="matrix(1,0,0,1,372.6100238429632,671.7091836734692) translate(0 17.1)"/><use xlink:href="#v" transform="matrix(1,0,0,1,486.07941159806524,671.7091836734692) translate(0 17.1)"/><use xlink:href="#as" transform="matrix(1,0,0,1,372.6100238429632,703.7091836734692) translate(0 17.1)"/><use xlink:href="#U" transform="matrix(1,0,0,1,486.07941159806524,703.7091836734692) translate(0 17.1)"/><use xlink:href="#at" transform="matrix(1,0,0,1,372.6100238429632,735.7091836734692) translate(0 17.1)"/><use xlink:href="#j" transform="matrix(1,0,0,1,486.07941159806524,735.7091836734692) translate(0 17.1)"/><use xlink:href="#g" transform="matrix(1,0,0,1,372.6100238429632,767.7091836734692) translate(0 17.1)"/><use xlink:href="#s" transform="matrix(1,0,0,1,486.07941159806524,767.7091836734692) translate(0 17.1)"/><path d="M299.25 871.67H260v-527.4h39.83" stroke="#000" fill="none"/><path d="M309.25 861.67v20M319.25 871.67h-20M299.25 861.67v20M319.02 354.28l-20-10 20-10M319.02 344.28h-20" stroke="#000" fill="#fff"/><path d="M570.83 653.2h29.42V376.3h-20" stroke="#000" fill="none"/><path d="M560.83 663.2v-20M550.83 653.2h20M570.83 663.2v-20M560.47 366.28l20 10-20 10M560.47 376.28h20M580.47 386.28v-20" stroke="#000" fill="#fff"/><path d="M639.25 716H600v438.14h-19.75" stroke="#000" fill="none"/><path d="M649.25 706v20M659.25 716h-20M639.25 706v20M560.47 1144.14l20 10-20 10M560.47 1154.14h20M580.47 1164.14v-20" stroke="#000" fill="#fff"/><path d="M639.25 416H620V312.28h-39.75" stroke="#000" fill="none"/><path d="M649.25 406v20M659.25 416h-20M639.25 406v20M560.47 302.28l20 10-20 10M560.47 312.28h20M580.47 322.28v-20" stroke="#000" fill="#fff"/><path d="M1098.56 983.84h230.58v104h-230.58z" fill="#fff"/><path d="M1098.56 983.84h230.58v104h-230.58zM1098.56 1023.84h230.58M1146.43 1023.84v64M1247.3 1023.84v64" stroke="#000" fill="none"/><use xlink:href="#au" transform="matrix(1,0,0,1,1108.5634874954146,983.8371598639454) translate(76.525 23.6)"/><use xlink:href="#h" transform="matrix(1,0,0,1,1103.5634874954146,1026.3371598639455) translate(7 17.1)"/><use xlink:href="#i" transform="matrix(1,0,0,1,1151.427433073646,1026.3371598639455) translate(0 17.1)"/><use xlink:href="#m" transform="matrix(1,0,0,1,1252.2916985306272,1026.3371598639455) translate(0 17.1)"/><use xlink:href="#aa" transform="matrix(1,0,0,1,1151.427433073646,1058.3371598639455) translate(0 17.1)"/><use xlink:href="#v" transform="matrix(1,0,0,1,1252.2916985306272,1058.3371598639455) translate(0 17.1)"/><path d="M1078.06 1039.84H1020V812h-39.75" stroke="#000" fill="none"/><path d="M1088.06 1029.84v20M1098.06 1039.84h-20M1078.06 1029.84v20M960.47 802l20 10-20 10M960.47 812h20M980.47 822v-20" stroke="#000" fill="#fff"/><path d="M1100 1132.05h230.58v136H1100z" fill="#fff"/><path d="M1100 1132.05h230.58v136H1100zM1100 1172.05h230.58M1147.86 1172.05v96M1248.73 1172.05v96" stroke="#000" fill="none"/><use xlink:href="#av" transform="matrix(1,0,0,1,1110,1132.0520425674918) translate(73.525 23.6)"/><use xlink:href="#h" transform="matrix(1,0,0,1,1105,1174.5520425674918) translate(7 17.1)"/><use xlink:href="#i" transform="matrix(1,0,0,1,1152.8639455782313,1174.5520425674918) translate(0 17.1)"/><use xlink:href="#m" transform="matrix(1,0,0,1,1253.7282110352126,1174.5520425674918) translate(0 17.1)"/><use xlink:href="#u" transform="matrix(1,0,0,1,1152.8639455782313,1206.5520425674918) translate(0 17.1)"/><use xlink:href="#v" transform="matrix(1,0,0,1,1253.7282110352126,1206.5520425674918) translate(0 17.1)"/><use xlink:href="#aw" transform="matrix(1,0,0,1,1152.8639455782313,1238.5520425674918) translate(0 17.1)"/><use xlink:href="#v" transform="matrix(1,0,0,1,1253.7282110352126,1238.5520425674918) translate(0 17.1)"/><path d="M1079.5 1188H931.08" stroke="#000" fill="none"/><path d="M1089.5 1178v20M1099.5 1188h-20M1079.5 1178v20M911.3 1178l20 10-20 10M911.3 1188h20M931.3 1198v-20" stroke="#000" fill="#fff"/><path d="M1459.75 1020h240v136h-240z" fill="#fff"/><path d="M1459.75 1020h240v136h-240zM1459.75 1060h240M1507.6 1060v96M1615.47 1060v96" stroke="#000" fill="none"/><use xlink:href="#ax" transform="matrix(1,0,0,1,1469.7460782647318,1020) translate(84.575 23.6)"/><use xlink:href="#h" transform="matrix(1,0,0,1,1464.7460782647318,1062.5) translate(7 17.1)"/><use xlink:href="#i" transform="matrix(1,0,0,1,1512.610023842963,1062.5) translate(0 17.1)"/><use xlink:href="#j" transform="matrix(1,0,0,1,1620.4739694211944,1062.5) translate(0 17.1)"/><use xlink:href="#u" transform="matrix(1,0,0,1,1512.610023842963,1094.5) translate(0 17.1)"/><use xlink:href="#v" transform="matrix(1,0,0,1,1620.4739694211944,1094.5) translate(0 17.1)"/><use xlink:href="#ay" transform="matrix(1,0,0,1,1512.610023842963,1126.5) translate(0 17.1)"/><use xlink:href="#s" transform="matrix(1,0,0,1,1620.4739694211944,1126.5) translate(0 17.1)"/><path d="M1460 799.67h240v168h-240z" fill="#fff"/><path d="M1460 799.67h240v168h-240zM1460 839.67h240M1507.86 839.67v128M1615.73 839.67v128" stroke="#000" fill="none"/><use xlink:href="#az" transform="matrix(1,0,0,1,1470,799.6743197278909) translate(54.55 23.6)"/><use xlink:href="#h" transform="matrix(1,0,0,1,1465,842.1743197278909) translate(7 17.1)"/><use xlink:href="#i" transform="matrix(1,0,0,1,1512.8639455782313,842.1743197278909) translate(0 17.1)"/><use xlink:href="#j" transform="matrix(1,0,0,1,1620.7278911564626,842.1743197278909) translate(0 17.1)"/><use xlink:href="#aa" transform="matrix(1,0,0,1,1512.8639455782313,874.1743197278909) translate(0 17.1)"/><use xlink:href="#v" transform="matrix(1,0,0,1,1620.7278911564626,874.1743197278909) translate(0 17.1)"/><use xlink:href="#aA" transform="matrix(1,0,0,1,1512.8639455782313,906.1743197278909) translate(0 17.1)"/><use xlink:href="#m" transform="matrix(1,0,0,1,1620.7278911564626,906.1743197278909) translate(0 17.1)"/><use xlink:href="#k" transform="matrix(1,0,0,1,1465,938.1743197278909) translate(7.524999999999999 17.1)"/><use xlink:href="#aB" transform="matrix(1,0,0,1,1512.8639455782313,938.1743197278909) translate(0 17.1)"/><use xlink:href="#m" transform="matrix(1,0,0,1,1620.7278911564626,938.1743197278909) translate(0 17.1)"/><path d="M940.25 228.02H1020V411c-2.76 0-5 2.24-5 5s2.24 5 5 5v182c-2.76 0-5 2.24-5 5s2.24 5 5 5v47h39.5v107.93h20" stroke="#000" fill="none"/><path d="M930.25 238.02v-20M920.25 228.02h20M940.25 238.02v-20M1099.28 777.93l-20-10 20-10M1099.28 767.93h-20M1079.28 757.93v20" stroke="#000" fill="#fff"/><path d="M319.75 442.74h230.58v136H319.75z" fill="#fff"/><path d="M319.75 442.74h230.58v136H319.75zM319.75 482.74h230.58M367.6 482.74v96M468.47 482.74v96" stroke="#000" fill="none"/><use xlink:href="#aq" transform="matrix(1,0,0,1,329.74607826473186,442.74404761904754) translate(59.074999999999996 23.6)"/><use xlink:href="#h" transform="matrix(1,0,0,1,324.74607826473186,485.24404761904754) translate(7 17.1)"/><use xlink:href="#i" transform="matrix(1,0,0,1,372.6100238429632,485.24404761904754) translate(0 17.1)"/><use xlink:href="#j" transform="matrix(1,0,0,1,473.4742892999444,485.24404761904754) translate(0 17.1)"/><use xlink:href="#aa" transform="matrix(1,0,0,1,372.6100238429632,517.2440476190475) translate(0 17.1)"/><use xlink:href="#v" transform="matrix(1,0,0,1,473.4742892999444,517.2440476190475) translate(0 17.1)"/><use xlink:href="#aC" transform="matrix(1,0,0,1,372.6100238429632,549.2440476190475) translate(0 17.1)"/><use xlink:href="#s" transform="matrix(1,0,0,1,473.4742892999444,549.2440476190475) translate(0 17.1)"/><path d="M299.25 498.74h-20v-90.46h20.58" stroke="#000" fill="none"/><path d="M299.25 488.74v20M319.25 498.74h-20M319.02 418.28l-20-10 20-10M319.02 408.28h-20" stroke="#000" fill="#fff"/><path d="M1479.5 75.4h240v200h-240z" fill="#fff"/><path d="M1479.5 75.4h240v200h-240zM1479.5 115.4h240M1527.36 115.4v160M1635.22 115.4v160" stroke="#000" fill="none"/><use xlink:href="#aD" transform="matrix(1,0,0,1,1489.4921565294635,75.41474508480636) translate(33.650000000000006 23.6)"/><use xlink:href="#h" transform="matrix(1,0,0,1,1484.4921565294635,117.91474508480636) translate(7 17.1)"/><use xlink:href="#i" transform="matrix(1,0,0,1,1532.3561021076948,117.91474508480636) translate(0 17.1)"/><use xlink:href="#j" transform="matrix(1,0,0,1,1640.2200476859261,117.91474508480636) translate(0 17.1)"/><use xlink:href="#k" transform="matrix(1,0,0,1,1484.4921565294635,149.91474508480636) translate(7.524999999999999 17.1)"/><use xlink:href="#g" transform="matrix(1,0,0,1,1532.3561021076948,149.91474508480636) translate(0 17.1)"/><use xlink:href="#j" transform="matrix(1,0,0,1,1640.2200476859261,149.91474508480636) translate(0 17.1)"/><use xlink:href="#aa" transform="matrix(1,0,0,1,1532.3561021076948,181.91474508480636) translate(0 17.1)"/><use xlink:href="#v" transform="matrix(1,0,0,1,1640.2200476859261,181.91474508480636) translate(0 17.1)"/><use xlink:href="#aE" transform="matrix(1,0,0,1,1532.3561021076948,213.91474508480636) translate(0 17.1)"/><use xlink:href="#j" transform="matrix(1,0,0,1,1640.2200476859261,213.91474508480636) translate(0 17.1)"/><use xlink:href="#k" transform="matrix(1,0,0,1,1484.4921565294635,245.91474508480636) translate(7.524999999999999 17.1)"/><use xlink:href="#aB" transform="matrix(1,0,0,1,1532.3561021076948,245.91474508480636) translate(0 17.1)"/><use xlink:href="#m" transform="matrix(1,0,0,1,1640.2200476859261,245.91474508480636) translate(0 17.1)"/><path d="M1459 163.4h-45.27v.54h-45.27" stroke="#000" fill="none"/><path d="M1478.77 173.4l-20-10 20-10M1478.77 163.4h-20M1458.77 153.4v20M1358.46 173.94v-20M1348.46 163.94h20M1368.46 173.94v-20" stroke="#000" fill="#fff"/><path d="M1480 307.08h200v104h-200z" fill="#fff"/><path d="M1480 307.08h200v104h-200zM1480 347.08h200M1517.33 347.08v64M1612 347.08v64" stroke="#000" fill="none"/><use xlink:href="#aF" transform="matrix(1,0,0,1,1490,307.0793963519269) translate(28.574999999999996 23.6)"/><use xlink:href="#h" transform="matrix(1,0,0,1,1485,349.5793963519269) translate(2 17.1)"/><use xlink:href="#i" transform="matrix(1,0,0,1,1522.3333333333335,349.5793963519269) translate(0 17.1)"/><use xlink:href="#m" transform="matrix(1,0,0,1,1617,349.5793963519269) translate(0 17.1)"/><use xlink:href="#aa" transform="matrix(1,0,0,1,1522.3333333333335,381.5793963519269) translate(0 17.1)"/><use xlink:href="#v" transform="matrix(1,0,0,1,1617,381.5793963519269) translate(0 17.1)"/><path d="M1459.5 363.1H1439V259.76h20" stroke="#000" fill="none"/><path d="M1469.5 353.1v20M1479.5 363.1h-20M1459.5 353.1v20M1478.77 269.76l-20-10 20-10M1478.77 259.76h-20M1458.77 249.76v20" stroke="#000" fill="#fff"/><path d="M1700.5 363.1h40v588.86h-20" stroke="#000" fill="none"/><path d="M1690.5 373.1v-20M1680.5 363.1h20M1700.5 373.1v-20M1700.72 941.96l20 10-20 10M1700.72 951.96h20M1720.72 961.96v-20" stroke="#000" fill="#fff"/><path d="M670.58 896h240v136h-240z" fill="#fff"/><path d="M670.58 896h240v136h-240zM670.58 936h240M718.44 936v96M826.3 936v96" stroke="#000" fill="none"/><use xlink:href="#aG" transform="matrix(1,0,0,1,680.5804762972111,896) translate(51.099999999999994 23.6)"/><use xlink:href="#aH" transform="matrix(1,0,0,1,675.5804762972111,938.5) translate(7 17.1)"/><use xlink:href="#aI" transform="matrix(1,0,0,1,723.4444218754425,938.5) translate(0 17.1)"/><use xlink:href="#aJ" transform="matrix(1,0,0,1,831.3083674536738,938.5) translate(0 17.1)"/><use xlink:href="#aK" transform="matrix(1,0,0,1,675.5804762972111,970.5) translate(7.524999999999999 17.1)"/><use xlink:href="#aL" transform="matrix(1,0,0,1,723.4444218754425,970.5) translate(0 17.1)"/><use xlink:href="#aJ" transform="matrix(1,0,0,1,831.3083674536738,970.5) translate(0 17.1)"/><use xlink:href="#aK" transform="matrix(1,0,0,1,675.5804762972111,1002.5) translate(7.524999999999999 17.1)"/><use xlink:href="#aM" transform="matrix(1,0,0,1,723.4444218754425,1002.5) translate(0 17.1)"/><use xlink:href="#I" transform="matrix(1,0,0,1,831.3083674536738,1002.5) translate(0 17.1)"/><path d="M639.25 747.96h-20v236.12h30.83" stroke="#000" fill="none"/><path d="M649.25 737.96v20M659.25 747.96h-20M639.25 737.96v20M669.86 994.08l-20-10 20-10M669.86 984.08h-20M649.86 974.08v20" stroke="#000" fill="#fff"/><path d="M931.08 1123.95h20v-107.73h-20" stroke="#000" fill="none"/><path d="M921.08 1133.95v-20M911.08 1123.95h20M931.08 1133.95v-20M911.3 1006.22l20 10-20 10M911.3 1016.22h20M931.3 1026.22v-20" stroke="#000" fill="#fff"/><defs><path fill="#b2b2b2" d="M275 0h-61l-44-196L126 0H64L0-248h53L97-49l45-199h58l43 199 44-199h52" id="aN"/><path fill="#b2b2b2" d="M140-251c80 0 125 45 125 126S219 4 139 4C58 4 15-44 15-125s44-126 125-126zm-1 214c52 0 73-35 73-88 0-50-21-86-72-86-52 0-73 35-73 86s22 88 72 88" id="aO"/><path fill="#b2b2b2" d="M175 0L67-191c6 58 2 128 3 191H24v-248h59L193-55c-6-58-2-129-3-193h46V0h-61" id="aP"/><path fill="#b2b2b2" d="M210 0H11v-37l134-170H24v-41h178v36L68-41h142V0" id="aQ"/><g id="a"><use transform="matrix(0.0728395061728395,0,0,0.0728395061728395,0,0)" xlink:href="#aN"/><use transform="matrix(0.0728395061728395,0,0,0.0728395061728395,24.692592592592593,0)" xlink:href="#aO"/><use transform="matrix(0.0728395061728395,0,0,0.0728395061728395,45.08765432098765,0)" xlink:href="#aP"/><use transform="matrix(0.0728395061728395,0,0,0.0728395061728395,63.953086419753085,0)" xlink:href="#aQ"/></g><path fill="#b2b2b2" d="M30-248c118-7 216 8 213 122C240-48 200 0 122 0H30v-248zM63-27c89 8 146-16 146-99s-60-101-146-95v194" id="aR"/><path fill="#b2b2b2" d="M24-231v-30h32v30H24zM24 0v-190h32V0H24" id="aS"/><path fill="#b2b2b2" d="M141-36C126-15 110 5 73 4 37 3 15-17 15-53c-1-64 63-63 125-63 3-35-9-54-41-54-24 1-41 7-42 31l-33-3c5-37 33-52 76-52 45 0 72 20 72 64v82c-1 20 7 32 28 27v20c-31 9-61-2-59-35zM48-53c0 20 12 33 32 33 41-3 63-29 60-74-43 2-92-5-92 41" id="aT"/><path fill="#b2b2b2" d="M177-190C167-65 218 103 67 71c-23-6-38-20-44-43l32-5c15 47 100 32 89-28v-30C133-14 115 1 83 1 29 1 15-40 15-95c0-56 16-97 71-98 29-1 48 16 59 35 1-10 0-23 2-32h30zM94-22c36 0 50-32 50-73 0-42-14-75-50-75-39 0-46 34-46 75s6 73 46 73" id="aU"/><path fill="#b2b2b2" d="M114-163C36-179 61-72 57 0H25l-1-190h30c1 12-1 29 2 39 6-27 23-49 58-41v29" id="aV"/><path fill="#b2b2b2" d="M210-169c-67 3-38 105-44 169h-31v-121c0-29-5-50-35-48C34-165 62-65 56 0H25l-1-190h30c1 10-1 24 2 32 10-44 99-50 107 0 11-21 27-35 58-36 85-2 47 119 55 194h-31v-121c0-29-5-49-35-48" id="aW"/><path fill="#b2b2b2" d="M135-143c-3-34-86-38-87 0 15 53 115 12 119 90S17 21 10-45l28-5c4 36 97 45 98 0-10-56-113-15-118-90-4-57 82-63 122-42 12 7 21 19 24 35" id="aX"/><g id="b"><use transform="matrix(0.04248971193415638,0,0,0.04248971193415638,0,0)" xlink:href="#aR"/><use transform="matrix(0.04248971193415638,0,0,0.04248971193415638,11.004835390946502,0)" xlink:href="#aS"/><use transform="matrix(0.04248971193415638,0,0,0.04248971193415638,14.361522633744855,0)" xlink:href="#aT"/><use transform="matrix(0.04248971193415638,0,0,0.04248971193415638,22.85946502057613,0)" xlink:href="#aU"/><use transform="matrix(0.04248971193415638,0,0,0.04248971193415638,31.357407407407408,0)" xlink:href="#aV"/><use transform="matrix(0.04248971193415638,0,0,0.04248971193415638,36.413683127572014,0)" xlink:href="#aT"/><use transform="matrix(0.04248971193415638,0,0,0.04248971193415638,44.91162551440329,0)" xlink:href="#aW"/><use transform="matrix(0.04248971193415638,0,0,0.04248971193415638,57.61604938271605,0)" xlink:href="#aX"/></g><path fill="#b2b2b2" d="M32 76v-337h29V76H32" id="aY"/><use transform="matrix(0.04248971193415638,0,0,0.04248971193415638,0,0)" xlink:href="#aY" id="c"/><path fill="#b2b2b2" d="M205 0l-28-72H64L36 0H1l101-248h38L239 0h-34zm-38-99l-47-123c-12 45-31 82-46 123h93" id="aZ"/><path fill="#b2b2b2" d="M115-194c55 1 70 41 70 98S169 2 115 4C84 4 66-9 55-30l1 105H24l-1-265h31l2 30c10-21 28-34 59-34zm-8 174c40 0 45-34 45-75s-6-73-45-74c-42 0-51 32-51 76 0 43 10 73 51 73" id="ba"/><path fill="#b2b2b2" d="M24 0v-261h32V0H24" id="bb"/><g id="d"><use transform="matrix(0.04248971193415638,0,0,0.04248971193415638,0,0)" xlink:href="#aZ"/><use transform="matrix(0.04248971193415638,0,0,0.04248971193415638,10.19753086419753,0)" xlink:href="#ba"/><use transform="matrix(0.04248971193415638,0,0,0.04248971193415638,18.695473251028805,0)" xlink:href="#aV"/><use transform="matrix(0.04248971193415638,0,0,0.04248971193415638,23.751748971193415,0)" xlink:href="#aS"/><use transform="matrix(0.04248971193415638,0,0,0.04248971193415638,27.10843621399177,0)" xlink:href="#bb"/></g><path fill="#b2b2b2" d="M27 0v-27h64v-190l-56 39v-29l58-41h29v221h61V0H27" id="bc"/><path fill="#b2b2b2" d="M134-131c28 9 52 24 51 62-1 50-34 73-85 73S17-19 16-69c0-36 21-54 49-61-75-25-45-126 34-121 46 3 78 18 79 63 0 33-17 51-44 57zm-34-11c31 1 46-15 46-44 0-28-17-43-47-42-29 0-46 13-45 42 1 28 16 44 46 44zm1 122c35 0 51-18 51-52 0-30-18-46-53-46-33 0-51 17-51 47 0 34 19 51 53 51" id="bd"/><path fill="#b2b2b2" d="M68-38c1 34 0 65-14 84H32c9-13 17-26 17-46H33v-38h35" id="be"/><g id="e"><use transform="matrix(0.04248971193415638,0,0,0.04248971193415638,0,0)" xlink:href="#bc"/><use transform="matrix(0.04248971193415638,0,0,0.04248971193415638,8.497942386831275,0)" xlink:href="#bd"/><use transform="matrix(0.04248971193415638,0,0,0.04248971193415638,16.99588477366255,0)" xlink:href="#be"/></g><path fill="#b2b2b2" d="M101-251c82-7 93 87 43 132L82-64C71-53 59-42 53-27h129V0H18c2-99 128-94 128-182 0-28-16-43-45-43s-46 15-49 41l-32-3c6-41 34-60 81-64" id="bf"/><path fill="#b2b2b2" d="M101-251c68 0 85 55 85 127S166 4 100 4C33 4 14-52 14-124c0-73 17-127 87-127zm-1 229c47 0 54-49 54-102s-4-102-53-102c-51 0-55 48-55 102 0 53 5 102 54 102" id="bg"/><g id="f"><use transform="matrix(0.04248971193415638,0,0,0.04248971193415638,0,0)" xlink:href="#bf"/><use transform="matrix(0.04248971193415638,0,0,0.04248971193415638,8.497942386831275,0)" xlink:href="#bg"/><use transform="matrix(0.04248971193415638,0,0,0.04248971193415638,16.99588477366255,0)" xlink:href="#bf"/><use transform="matrix(0.04248971193415638,0,0,0.04248971193415638,25.493827160493822,0)" xlink:href="#bc"/></g><path d="M209 0H11v-25l151-195H24v-28h176v25L50-27h159V0" id="bh"/><path d="M100-194c63 0 86 42 84 106H49c0 40 14 67 53 68 26 1 43-12 49-29l28 8c-11 28-37 45-77 45C44 4 14-33 15-96c1-61 26-98 85-98zm52 81c6-60-76-77-97-28-3 7-6 17-6 28h103" id="bi"/><path d="M84 4C-5 8 30-112 23-190h32v120c0 31 7 50 39 49 72-2 45-101 50-169h31l1 190h-30c-1-10 1-25-2-33-11 22-28 36-60 37" id="bj"/><path d="M177-190C167-65 218 103 67 71c-23-6-38-20-44-43l32-5c15 47 100 32 89-28v-30C133-14 115 1 83 1 29 1 15-40 15-95c0-56 16-97 71-98 29-1 48 16 59 35 1-10 0-23 2-32h30zM94-22c36 0 50-32 50-73 0-42-14-75-50-75-39 0-46 34-46 75s6 73 46 73" id="bk"/><path d="M117-194c89-4 53 116 60 194h-32v-121c0-31-8-49-39-48C34-167 62-67 57 0H25l-1-190h30c1 10-1 24 2 32 11-22 29-35 61-36" id="bl"/><path d="M24-231v-30h32v30H24zM24 0v-190h32V0H24" id="bm"/><path d="M135-143c-3-34-86-38-87 0 15 53 115 12 119 90S17 21 10-45l28-5c4 36 97 45 98 0-10-56-113-15-118-90-4-57 82-63 122-42 12 7 21 19 24 35" id="bn"/><g id="g"><use transform="matrix(0.05,0,0,0.05,0,0)" xlink:href="#bh"/><use transform="matrix(0.05,0,0,0.05,10.950000000000001,0)" xlink:href="#bi"/><use transform="matrix(0.05,0,0,0.05,20.950000000000003,0)" xlink:href="#bj"/><use transform="matrix(0.05,0,0,0.05,30.950000000000003,0)" xlink:href="#bk"/><use transform="matrix(0.05,0,0,0.05,40.95,0)" xlink:href="#bl"/><use transform="matrix(0.05,0,0,0.05,50.95,0)" xlink:href="#bm"/><use transform="matrix(0.05,0,0,0.05,54.900000000000006,0)" xlink:href="#bn"/></g><path d="M30-248c87 1 191-15 191 75 0 78-77 80-158 76V0H30v-248zm33 125c57 0 124 11 124-50 0-59-68-47-124-48v98" id="bo"/><path d="M194 0L95-120 63-95V0H30v-248h33v124l119-124h40L117-140 236 0h-42" id="bp"/><g id="h"><use transform="matrix(0.05,0,0,0.05,0,0)" xlink:href="#bo"/><use transform="matrix(0.05,0,0,0.05,12,0)" xlink:href="#bp"/></g><path d="M33 0v-248h34V0H33" id="bq"/><path d="M30-248c118-7 216 8 213 122C240-48 200 0 122 0H30v-248zM63-27c89 8 146-16 146-99s-60-101-146-95v194" id="br"/><g id="i"><use transform="matrix(0.05,0,0,0.05,0,0)" xlink:href="#bq"/><use transform="matrix(0.05,0,0,0.05,5,0)" xlink:href="#br"/></g><path d="M59-47c-2 24 18 29 38 22v24C64 9 27 4 27-40v-127H5v-23h24l9-43h21v43h35v23H59v120" id="bs"/><g id="j"><use transform="matrix(0.05,0,0,0.05,0,0)" xlink:href="#bm"/><use transform="matrix(0.05,0,0,0.05,3.95,0)" xlink:href="#bl"/><use transform="matrix(0.05,0,0,0.05,13.949999999999998,0)" xlink:href="#bs"/></g><path d="M63-220v92h138v28H63V0H30v-248h175v28H63" id="bt"/><g id="k"><use transform="matrix(0.05,0,0,0.05,0,0)" xlink:href="#bt"/><use transform="matrix(0.05,0,0,0.05,10.950000000000001,0)" xlink:href="#bp"/></g><path d="M185-189c-5-48-123-54-124 2 14 75 158 14 163 119 3 78-121 87-175 55-17-10-28-26-33-46l33-7c5 56 141 63 141-1 0-78-155-14-162-118-5-82 145-84 179-34 5 7 8 16 11 25" id="bu"/><path d="M96-169c-40 0-48 33-48 73s9 75 48 75c24 0 41-14 43-38l32 2c-6 37-31 61-74 61-59 0-76-41-82-99-10-93 101-131 147-64 4 7 5 14 7 22l-32 3c-4-21-16-35-41-35" id="bv"/><path d="M106-169C34-169 62-67 57 0H25v-261h32l-1 103c12-21 28-36 61-36 89 0 53 116 60 194h-32v-121c2-32-8-49-39-48" id="bw"/><path d="M24 0v-261h32V0H24" id="bx"/><path d="M24-231v-30h32v30H24zM-9 49c24 4 33-6 33-30v-209h32V24c2 40-23 58-65 49V49" id="by"/><path d="M141-36C126-15 110 5 73 4 37 3 15-17 15-53c-1-64 63-63 125-63 3-35-9-54-41-54-24 1-41 7-42 31l-33-3c5-37 33-52 76-52 45 0 72 20 72 64v82c-1 20 7 32 28 27v20c-31 9-61-2-59-35zM48-53c0 20 12 33 32 33 41-3 63-29 60-74-43 2-92-5-92 41" id="bz"/><path d="M114-163C36-179 61-72 57 0H25l-1-190h30c1 12-1 29 2 39 6-27 23-49 58-41v29" id="bA"/><g id="l"><use transform="matrix(0.05,0,0,0.05,0,0)" xlink:href="#bu"/><use transform="matrix(0.05,0,0,0.05,12,0)" xlink:href="#bv"/><use transform="matrix(0.05,0,0,0.05,21,0)" xlink:href="#bw"/><use transform="matrix(0.05,0,0,0.05,31,0)" xlink:href="#bj"/><use transform="matrix(0.05,0,0,0.05,41,0)" xlink:href="#bx"/><use transform="matrix(0.05,0,0,0.05,44.95,0)" xlink:href="#by"/><use transform="matrix(0.05,0,0,0.05,48.900000000000006,0)" xlink:href="#bz"/><use transform="matrix(0.05,0,0,0.05,58.900000000000006,0)" xlink:href="#bw"/><use transform="matrix(0.05,0,0,0.05,68.9,0)" xlink:href="#bA"/><use transform="matrix(0.05,0,0,0.05,74.85000000000001,0)" xlink:href="#bq"/><use transform="matrix(0.05,0,0,0.05,79.85000000000001,0)" xlink:href="#br"/></g><path d="M210-169c-67 3-38 105-44 169h-31v-121c0-29-5-50-35-48C34-165 62-65 56 0H25l-1-190h30c1 10-1 24 2 32 10-44 99-50 107 0 11-21 27-35 58-36 85-2 47 119 55 194h-31v-121c0-29-5-49-35-48" id="bB"/><g id="m"><use transform="matrix(0.05,0,0,0.05,0,0)" xlink:href="#bn"/><use transform="matrix(0.05,0,0,0.05,9,0)" xlink:href="#bB"/><use transform="matrix(0.05,0,0,0.05,23.950000000000003,0)" xlink:href="#bz"/><use transform="matrix(0.05,0,0,0.05,33.95,0)" xlink:href="#bx"/><use transform="matrix(0.05,0,0,0.05,37.900000000000006,0)" xlink:href="#bx"/><use transform="matrix(0.05,0,0,0.05,41.85000000000001,0)" xlink:href="#bm"/><use transform="matrix(0.05,0,0,0.05,45.80000000000001,0)" xlink:href="#bl"/><use transform="matrix(0.05,0,0,0.05,55.80000000000001,0)" xlink:href="#bs"/></g><g id="n"><use transform="matrix(0.05,0,0,0.05,0,0)" xlink:href="#bu"/><use transform="matrix(0.05,0,0,0.05,12,0)" xlink:href="#bv"/><use transform="matrix(0.05,0,0,0.05,21,0)" xlink:href="#bw"/><use transform="matrix(0.05,0,0,0.05,31,0)" xlink:href="#bj"/><use transform="matrix(0.05,0,0,0.05,41,0)" xlink:href="#bi"/><use transform="matrix(0.05,0,0,0.05,51,0)" xlink:href="#bx"/><use transform="matrix(0.05,0,0,0.05,54.95,0)" xlink:href="#bi"/><use transform="matrix(0.05,0,0,0.05,64.95,0)" xlink:href="#bA"/><use transform="matrix(0.05,0,0,0.05,70.9,0)" xlink:href="#bq"/><use transform="matrix(0.05,0,0,0.05,75.9,0)" xlink:href="#br"/></g><g id="o"><use transform="matrix(0.05,0,0,0.05,0,0)" xlink:href="#bt"/><use transform="matrix(0.05,0,0,0.05,10.950000000000001,0)" xlink:href="#bp"/></g><path d="M137 0h-34L2-248h35l83 218 83-218h36" id="bC"/><path d="M9 0v-24l116-142H16v-24h144v24L44-24h123V0H9" id="bD"/><g id="p"><use transform="matrix(0.05,0,0,0.05,0,0)" xlink:href="#bC"/><use transform="matrix(0.05,0,0,0.05,11,0)" xlink:href="#bi"/><use transform="matrix(0.05,0,0,0.05,21,0)" xlink:href="#bA"/><use transform="matrix(0.05,0,0,0.05,26.950000000000003,0)" xlink:href="#bn"/><use transform="matrix(0.05,0,0,0.05,35.95,0)" xlink:href="#bi"/><use transform="matrix(0.05,0,0,0.05,45.95,0)" xlink:href="#bs"/><use transform="matrix(0.05,0,0,0.05,50.95,0)" xlink:href="#bD"/><use transform="matrix(0.05,0,0,0.05,59.95,0)" xlink:href="#bj"/><use transform="matrix(0.05,0,0,0.05,69.95,0)" xlink:href="#bl"/><use transform="matrix(0.05,0,0,0.05,79.95,0)" xlink:href="#bk"/><use transform="matrix(0.05,0,0,0.05,89.95,0)" xlink:href="#bq"/><use transform="matrix(0.05,0,0,0.05,94.95,0)" xlink:href="#br"/></g><path d="M179-190L93 31C79 59 56 82 12 73V49c39 6 53-20 64-50L1-190h34L92-34l54-156h33" id="bE"/><g id="q"><use transform="matrix(0.05,0,0,0.05,0,0)" xlink:href="#bs"/><use transform="matrix(0.05,0,0,0.05,5,0)" xlink:href="#bm"/><use transform="matrix(0.05,0,0,0.05,8.95,0)" xlink:href="#bl"/><use transform="matrix(0.05,0,0,0.05,18.95,0)" xlink:href="#bE"/><use transform="matrix(0.05,0,0,0.05,27.950000000000003,0)" xlink:href="#bm"/><use transform="matrix(0.05,0,0,0.05,31.899999999999995,0)" xlink:href="#bl"/><use transform="matrix(0.05,0,0,0.05,41.9,0)" xlink:href="#bs"/></g><g id="r"><use transform="matrix(0.05,0,0,0.05,0,0)" xlink:href="#bu"/><use transform="matrix(0.05,0,0,0.05,12,0)" xlink:href="#bs"/><use transform="matrix(0.05,0,0,0.05,17,0)" xlink:href="#bz"/><use transform="matrix(0.05,0,0,0.05,27,0)" xlink:href="#bs"/><use transform="matrix(0.05,0,0,0.05,32,0)" xlink:href="#bj"/><use transform="matrix(0.05,0,0,0.05,42,0)" xlink:href="#bn"/><use transform="matrix(0.05,0,0,0.05,51,0)" xlink:href="#bq"/><use transform="matrix(0.05,0,0,0.05,56,0)" xlink:href="#br"/></g><g id="s"><use transform="matrix(0.05,0,0,0.05,0,0)" xlink:href="#bs"/><use transform="matrix(0.05,0,0,0.05,5,0)" xlink:href="#bm"/><use transform="matrix(0.05,0,0,0.05,8.95,0)" xlink:href="#bl"/><use transform="matrix(0.05,0,0,0.05,18.95,0)" xlink:href="#bE"/><use transform="matrix(0.05,0,0,0.05,27.950000000000003,0)" xlink:href="#bm"/><use transform="matrix(0.05,0,0,0.05,31.899999999999995,0)" xlink:href="#bl"/><use transform="matrix(0.05,0,0,0.05,41.9,0)" xlink:href="#bs"/></g><g id="t"><use transform="matrix(0.05,0,0,0.05,0,0)" xlink:href="#bu"/><use transform="matrix(0.05,0,0,0.05,12,0)" xlink:href="#bv"/><use transform="matrix(0.05,0,0,0.05,21,0)" xlink:href="#bw"/><use transform="matrix(0.05,0,0,0.05,31,0)" xlink:href="#bj"/><use transform="matrix(0.05,0,0,0.05,41,0)" xlink:href="#bi"/><use transform="matrix(0.05,0,0,0.05,51,0)" xlink:href="#bx"/><use transform="matrix(0.05,0,0,0.05,54.95,0)" xlink:href="#bi"/><use transform="matrix(0.05,0,0,0.05,64.95,0)" xlink:href="#bA"/></g><path d="M190 0L58-211 59 0H30v-248h39L202-35l-2-213h31V0h-41" id="bF"/><g id="u"><use transform="matrix(0.05,0,0,0.05,0,0)" xlink:href="#bF"/><use transform="matrix(0.05,0,0,0.05,12.950000000000001,0)" xlink:href="#bz"/><use transform="matrix(0.05,0,0,0.05,22.950000000000003,0)" xlink:href="#bB"/><use transform="matrix(0.05,0,0,0.05,37.900000000000006,0)" xlink:href="#bi"/></g><path d="M108 0H70L1-190h34L89-25l56-165h34" id="bG"/><g id="v"><use transform="matrix(0.05,0,0,0.05,0,0)" xlink:href="#bG"/><use transform="matrix(0.05,0,0,0.05,9,0)" xlink:href="#bz"/><use transform="matrix(0.05,0,0,0.05,19,0)" xlink:href="#bA"/><use transform="matrix(0.05,0,0,0.05,24.95,0)" xlink:href="#bv"/><use transform="matrix(0.05,0,0,0.05,33.95,0)" xlink:href="#bw"/><use transform="matrix(0.05,0,0,0.05,43.95,0)" xlink:href="#bz"/><use transform="matrix(0.05,0,0,0.05,53.95,0)" xlink:href="#bA"/></g><path d="M100-194c62-1 85 37 85 99 1 63-27 99-86 99S16-35 15-95c0-66 28-99 85-99zM99-20c44 1 53-31 53-75 0-43-8-75-51-75s-53 32-53 75 10 74 51 75" id="bH"/><g id="w"><use transform="matrix(0.05,0,0,0.05,0,0)" xlink:href="#bC"/><use transform="matrix(0.05,0,0,0.05,11,0)" xlink:href="#bH"/><use transform="matrix(0.05,0,0,0.05,21,0)" xlink:href="#bA"/><use transform="matrix(0.05,0,0,0.05,26.950000000000003,0)" xlink:href="#bl"/><use transform="matrix(0.05,0,0,0.05,36.95,0)" xlink:href="#bz"/><use transform="matrix(0.05,0,0,0.05,46.95,0)" xlink:href="#bB"/><use transform="matrix(0.05,0,0,0.05,61.900000000000006,0)" xlink:href="#bi"/></g><path d="M233-177c-1 41-23 64-60 70L243 0h-38l-65-103H63V0H30v-248c88 3 205-21 203 71zM63-129c60-2 137 13 137-47 0-61-80-42-137-45v92" id="bI"/><path d="M101-234c-31-9-42 10-38 44h38v23H63V0H32v-167H5v-23h27c-7-52 17-82 69-68v24" id="bJ"/><g id="x"><use transform="matrix(0.05,0,0,0.05,0,0)" xlink:href="#bI"/><use transform="matrix(0.05,0,0,0.05,12.950000000000001,0)" xlink:href="#bj"/><use transform="matrix(0.05,0,0,0.05,22.950000000000003,0)" xlink:href="#bJ"/><use transform="matrix(0.05,0,0,0.05,27.950000000000003,0)" xlink:href="#bl"/><use transform="matrix(0.05,0,0,0.05,37.95,0)" xlink:href="#bz"/><use transform="matrix(0.05,0,0,0.05,47.95,0)" xlink:href="#bB"/><use transform="matrix(0.05,0,0,0.05,62.900000000000006,0)" xlink:href="#bi"/></g><path d="M143 4C61 4 22-44 18-125c-5-107 100-154 193-111 17 8 29 25 37 43l-32 9c-13-25-37-40-76-40-61 0-88 39-88 99 0 61 29 100 91 101 35 0 62-11 79-27v-45h-74v-28h105v86C228-13 192 4 143 4" id="bK"/><path d="M115-194c53 0 69 39 70 98 0 66-23 100-70 100C84 3 66-7 56-30L54 0H23l1-261h32v101c10-23 28-34 59-34zm-8 174c40 0 45-34 45-75 0-40-5-75-45-74-42 0-51 32-51 76 0 43 10 73 51 73" id="bL"/><g id="y"><use transform="matrix(0.05,0,0,0.05,0,0)" xlink:href="#bK"/><use transform="matrix(0.05,0,0,0.05,14,0)" xlink:href="#bi"/><use transform="matrix(0.05,0,0,0.05,24,0)" xlink:href="#bL"/><use transform="matrix(0.05,0,0,0.05,34,0)" xlink:href="#bj"/><use transform="matrix(0.05,0,0,0.05,44,0)" xlink:href="#bA"/><use transform="matrix(0.05,0,0,0.05,49.95,0)" xlink:href="#bs"/><use transform="matrix(0.05,0,0,0.05,54.95,0)" xlink:href="#bn"/><use transform="matrix(0.05,0,0,0.05,63.95,0)" xlink:href="#bH"/><use transform="matrix(0.05,0,0,0.05,73.95,0)" xlink:href="#bA"/><use transform="matrix(0.05,0,0,0.05,79.9,0)" xlink:href="#bs"/></g><g id="z"><use transform="matrix(0.05,0,0,0.05,0,0)" xlink:href="#bK"/><use transform="matrix(0.05,0,0,0.05,14,0)" xlink:href="#bi"/><use transform="matrix(0.05,0,0,0.05,24,0)" xlink:href="#bL"/><use transform="matrix(0.05,0,0,0.05,34,0)" xlink:href="#bj"/><use transform="matrix(0.05,0,0,0.05,44,0)" xlink:href="#bA"/><use transform="matrix(0.05,0,0,0.05,49.95,0)" xlink:href="#bs"/><use transform="matrix(0.05,0,0,0.05,54.95,0)" xlink:href="#bn"/><use transform="matrix(0.05,0,0,0.05,63.95,0)" xlink:href="#bs"/><use transform="matrix(0.05,0,0,0.05,68.95,0)" xlink:href="#bz"/><use transform="matrix(0.05,0,0,0.05,78.95,0)" xlink:href="#bk"/></g><path d="M85-194c31 0 48 13 60 33l-1-100h32l1 261h-30c-2-10 0-23-3-31C134-8 116 4 85 4 32 4 16-35 15-94c0-66 23-100 70-100zm9 24c-40 0-46 34-46 75 0 40 6 74 45 74 42 0 51-32 51-76 0-42-9-74-50-73" id="bM"/><g id="A"><use transform="matrix(0.05,0,0,0.05,0,0)" xlink:href="#bM"/><use transform="matrix(0.05,0,0,0.05,10,0)" xlink:href="#bz"/><use transform="matrix(0.05,0,0,0.05,20,0)" xlink:href="#bs"/><use transform="matrix(0.05,0,0,0.05,25,0)" xlink:href="#bi"/></g><path d="M30 0v-248h33v221h125V0H30" id="bN"/><path d="M115-194c55 1 70 41 70 98S169 2 115 4C84 4 66-9 55-30l1 105H24l-1-265h31l2 30c10-21 28-34 59-34zm-8 174c40 0 45-34 45-75s-6-73-45-74c-42 0-51 32-51 76 0 43 10 73 51 73" id="bO"/><g id="B"><use transform="matrix(0.05,0,0,0.05,0,0)" xlink:href="#bN"/><use transform="matrix(0.05,0,0,0.05,10,0)" xlink:href="#bi"/><use transform="matrix(0.05,0,0,0.05,20,0)" xlink:href="#bA"/><use transform="matrix(0.05,0,0,0.05,25.950000000000003,0)" xlink:href="#bl"/><use transform="matrix(0.05,0,0,0.05,35.95,0)" xlink:href="#bk"/><use transform="matrix(0.05,0,0,0.05,45.95,0)" xlink:href="#bA"/><use transform="matrix(0.05,0,0,0.05,51.900000000000006,0)" xlink:href="#bj"/><use transform="matrix(0.05,0,0,0.05,61.900000000000006,0)" xlink:href="#bO"/><use transform="matrix(0.05,0,0,0.05,71.9,0)" xlink:href="#bO"/><use transform="matrix(0.05,0,0,0.05,81.9,0)" xlink:href="#bi"/></g><g id="C"><use transform="matrix(0.05,0,0,0.05,0,0)" xlink:href="#bN"/><use transform="matrix(0.05,0,0,0.05,10,0)" xlink:href="#bi"/><use transform="matrix(0.05,0,0,0.05,20,0)" xlink:href="#bw"/><use transform="matrix(0.05,0,0,0.05,30,0)" xlink:href="#bA"/><use transform="matrix(0.05,0,0,0.05,35.95,0)" xlink:href="#bi"/><use transform="matrix(0.05,0,0,0.05,45.95,0)" xlink:href="#bA"/></g><g id="D"><use transform="matrix(0.05,0,0,0.05,0,0)" xlink:href="#bp"/><use transform="matrix(0.05,0,0,0.05,12,0)" xlink:href="#bj"/><use transform="matrix(0.05,0,0,0.05,22,0)" xlink:href="#bi"/><use transform="matrix(0.05,0,0,0.05,32,0)" xlink:href="#bA"/><use transform="matrix(0.05,0,0,0.05,37.95,0)" xlink:href="#bD"/><use transform="matrix(0.05,0,0,0.05,46.95,0)" xlink:href="#bi"/><use transform="matrix(0.05,0,0,0.05,56.95,0)" xlink:href="#bx"/></g><path d="M87 75C49 33 22-17 22-94c0-76 28-126 65-167h31c-38 41-64 92-64 168S80 34 118 75H87" id="bP"/><path d="M54-142c48-35 137-8 131 61C196 18 31 33 14-55l32-4c7 23 22 37 52 37 35-1 51-22 54-58 4-55-73-65-99-34H22l8-134h141v27H59" id="bQ"/><path d="M33-261c38 41 65 92 65 168S71 34 33 75H2C39 34 66-17 66-93S39-220 2-261h31" id="bR"/><g id="E"><use transform="matrix(0.05,0,0,0.05,0,0)" xlink:href="#bv"/><use transform="matrix(0.05,0,0,0.05,9,0)" xlink:href="#bw"/><use transform="matrix(0.05,0,0,0.05,19,0)" xlink:href="#bz"/><use transform="matrix(0.05,0,0,0.05,29,0)" xlink:href="#bA"/><use transform="matrix(0.05,0,0,0.05,34.95,0)" xlink:href="#bP"/><use transform="matrix(0.05,0,0,0.05,40.900000000000006,0)" xlink:href="#bQ"/><use transform="matrix(0.05,0,0,0.05,50.900000000000006,0)" xlink:href="#bR"/></g><g id="F"><use transform="matrix(0.05,0,0,0.05,0,0)" xlink:href="#bF"/><use transform="matrix(0.05,0,0,0.05,12.950000000000001,0)" xlink:href="#bz"/><use transform="matrix(0.05,0,0,0.05,22.950000000000003,0)" xlink:href="#bB"/><use transform="matrix(0.05,0,0,0.05,37.900000000000006,0)" xlink:href="#bi"/></g><g id="G"><use transform="matrix(0.05,0,0,0.05,0,0)" xlink:href="#bG"/><use transform="matrix(0.05,0,0,0.05,9,0)" xlink:href="#bz"/><use transform="matrix(0.05,0,0,0.05,19,0)" xlink:href="#bA"/><use transform="matrix(0.05,0,0,0.05,24.95,0)" xlink:href="#bv"/><use transform="matrix(0.05,0,0,0.05,33.95,0)" xlink:href="#bw"/><use transform="matrix(0.05,0,0,0.05,43.95,0)" xlink:href="#bz"/><use transform="matrix(0.05,0,0,0.05,53.95,0)" xlink:href="#bA"/></g><path d="M205 0l-28-72H64L36 0H1l101-248h38L239 0h-34zm-38-99l-47-123c-12 45-31 82-46 123h93" id="bS"/><g id="H"><use transform="matrix(0.05,0,0,0.05,0,0)" xlink:href="#bS"/><use transform="matrix(0.05,0,0,0.05,12,0)" xlink:href="#bl"/><use transform="matrix(0.05,0,0,0.05,22,0)" xlink:href="#bA"/><use transform="matrix(0.05,0,0,0.05,27.950000000000003,0)" xlink:href="#bi"/><use transform="matrix(0.05,0,0,0.05,37.95,0)" xlink:href="#bM"/><use transform="matrix(0.05,0,0,0.05,47.95,0)" xlink:href="#bi"/></g><g id="I"><use transform="matrix(0.05,0,0,0.05,0,0)" xlink:href="#bn"/><use transform="matrix(0.05,0,0,0.05,9,0)" xlink:href="#bB"/><use transform="matrix(0.05,0,0,0.05,23.950000000000003,0)" xlink:href="#bz"/><use transform="matrix(0.05,0,0,0.05,33.95,0)" xlink:href="#bx"/><use transform="matrix(0.05,0,0,0.05,37.900000000000006,0)" xlink:href="#bx"/><use transform="matrix(0.05,0,0,0.05,41.85000000000001,0)" xlink:href="#bm"/><use transform="matrix(0.05,0,0,0.05,45.80000000000001,0)" xlink:href="#bl"/><use transform="matrix(0.05,0,0,0.05,55.80000000000001,0)" xlink:href="#bs"/></g><g id="J"><use transform="matrix(0.05,0,0,0.05,0,0)" xlink:href="#bF"/><use transform="matrix(0.05,0,0,0.05,12.950000000000001,0)" xlink:href="#bH"/><use transform="matrix(0.05,0,0,0.05,22.950000000000003,0)" xlink:href="#bs"/><use transform="matrix(0.05,0,0,0.05,27.950000000000003,0)" xlink:href="#bi"/></g><g id="K"><use transform="matrix(0.05,0,0,0.05,0,0)" xlink:href="#bt"/><use transform="matrix(0.05,0,0,0.05,10.950000000000001,0)" xlink:href="#bz"/><use transform="matrix(0.05,0,0,0.05,20.950000000000003,0)" xlink:href="#bv"/><use transform="matrix(0.05,0,0,0.05,29.950000000000003,0)" xlink:href="#bw"/><use transform="matrix(0.05,0,0,0.05,39.95,0)" xlink:href="#bq"/><use transform="matrix(0.05,0,0,0.05,44.95,0)" xlink:href="#br"/></g><g id="L"><use transform="matrix(0.05,0,0,0.05,0,0)" xlink:href="#bF"/><use transform="matrix(0.05,0,0,0.05,12.950000000000001,0)" xlink:href="#bH"/><use transform="matrix(0.05,0,0,0.05,22.950000000000003,0)" xlink:href="#bs"/><use transform="matrix(0.05,0,0,0.05,27.950000000000003,0)" xlink:href="#bi"/><use transform="matrix(0.05,0,0,0.05,37.95,0)" xlink:href="#bl"/><use transform="matrix(0.05,0,0,0.05,47.95,0)" xlink:href="#bq"/><use transform="matrix(0.05,0,0,0.05,52.95,0)" xlink:href="#br"/></g><path d="M143 0L79-87 56-68V0H24v-261h32v163l83-92h37l-77 82L181 0h-38" id="bT"/><g id="M"><use transform="matrix(0.05,0,0,0.05,0,0)" xlink:href="#bF"/><use transform="matrix(0.05,0,0,0.05,12.950000000000001,0)" xlink:href="#bH"/><use transform="matrix(0.05,0,0,0.05,22.950000000000003,0)" xlink:href="#bs"/><use transform="matrix(0.05,0,0,0.05,27.950000000000003,0)" xlink:href="#bi"/><use transform="matrix(0.05,0,0,0.05,37.95,0)" xlink:href="#bl"/><use transform="matrix(0.05,0,0,0.05,47.95,0)" xlink:href="#bs"/><use transform="matrix(0.05,0,0,0.05,52.95,0)" xlink:href="#bT"/><use transform="matrix(0.05,0,0,0.05,61.95,0)" xlink:href="#bx"/><use transform="matrix(0.05,0,0,0.05,65.9,0)" xlink:href="#bz"/><use transform="matrix(0.05,0,0,0.05,75.9,0)" xlink:href="#bn"/><use transform="matrix(0.05,0,0,0.05,84.9,0)" xlink:href="#bn"/><use transform="matrix(0.05,0,0,0.05,93.9,0)" xlink:href="#bi"/><use transform="matrix(0.05,0,0,0.05,103.9,0)" xlink:href="#bq"/><use transform="matrix(0.05,0,0,0.05,108.9,0)" xlink:href="#br"/></g><g id="N"><use transform="matrix(0.05,0,0,0.05,0,0)" xlink:href="#bp"/><use transform="matrix(0.05,0,0,0.05,12,0)" xlink:href="#bH"/><use transform="matrix(0.05,0,0,0.05,22,0)" xlink:href="#bB"/><use transform="matrix(0.05,0,0,0.05,36.95,0)" xlink:href="#bB"/><use transform="matrix(0.05,0,0,0.05,51.900000000000006,0)" xlink:href="#bi"/><use transform="matrix(0.05,0,0,0.05,61.900000000000006,0)" xlink:href="#bl"/><use transform="matrix(0.05,0,0,0.05,71.9,0)" xlink:href="#bs"/><use transform="matrix(0.05,0,0,0.05,76.9,0)" xlink:href="#bz"/><use transform="matrix(0.05,0,0,0.05,86.9,0)" xlink:href="#bA"/><use transform="matrix(0.05,0,0,0.05,92.85000000000001,0)" xlink:href="#bq"/><use transform="matrix(0.05,0,0,0.05,97.85000000000001,0)" xlink:href="#br"/></g><g id="O"><use transform="matrix(0.05,0,0,0.05,0,0)" xlink:href="#bt"/><use transform="matrix(0.05,0,0,0.05,10.950000000000001,0)" xlink:href="#bz"/><use transform="matrix(0.05,0,0,0.05,20.950000000000003,0)" xlink:href="#bv"/><use transform="matrix(0.05,0,0,0.05,29.950000000000003,0)" xlink:href="#bw"/></g><g id="P"><use transform="matrix(0.05,0,0,0.05,0,0)" xlink:href="#bN"/><use transform="matrix(0.05,0,0,0.05,10,0)" xlink:href="#bi"/><use transform="matrix(0.05,0,0,0.05,20,0)" xlink:href="#bw"/><use transform="matrix(0.05,0,0,0.05,30,0)" xlink:href="#bA"/><use transform="matrix(0.05,0,0,0.05,35.95,0)" xlink:href="#bi"/><use transform="matrix(0.05,0,0,0.05,45.95,0)" xlink:href="#bA"/><use transform="matrix(0.05,0,0,0.05,51.900000000000006,0)" xlink:href="#bq"/><use transform="matrix(0.05,0,0,0.05,56.900000000000006,0)" xlink:href="#br"/></g><g id="Q"><use transform="matrix(0.05,0,0,0.05,0,0)" xlink:href="#bm"/><use transform="matrix(0.05,0,0,0.05,3.95,0)" xlink:href="#bl"/><use transform="matrix(0.05,0,0,0.05,13.949999999999998,0)" xlink:href="#bs"/></g><g id="R"><use transform="matrix(0.05,0,0,0.05,0,0)" xlink:href="#bt"/><use transform="matrix(0.05,0,0,0.05,10.950000000000001,0)" xlink:href="#bz"/><use transform="matrix(0.05,0,0,0.05,20.950000000000003,0)" xlink:href="#bi"/><use transform="matrix(0.05,0,0,0.05,30.950000000000003,0)" xlink:href="#bv"/><use transform="matrix(0.05,0,0,0.05,39.95,0)" xlink:href="#bw"/><use transform="matrix(0.05,0,0,0.05,49.95,0)" xlink:href="#bi"/><use transform="matrix(0.05,0,0,0.05,59.95,0)" xlink:href="#bA"/><use transform="matrix(0.05,0,0,0.05,65.9,0)" xlink:href="#bq"/><use transform="matrix(0.05,0,0,0.05,70.9,0)" xlink:href="#br"/></g><g id="S"><use transform="matrix(0.05,0,0,0.05,0,0)" xlink:href="#bn"/><use transform="matrix(0.05,0,0,0.05,9,0)" xlink:href="#bB"/><use transform="matrix(0.05,0,0,0.05,23.950000000000003,0)" xlink:href="#bz"/><use transform="matrix(0.05,0,0,0.05,33.95,0)" xlink:href="#bx"/><use transform="matrix(0.05,0,0,0.05,37.900000000000006,0)" xlink:href="#bx"/><use transform="matrix(0.05,0,0,0.05,41.85000000000001,0)" xlink:href="#bm"/><use transform="matrix(0.05,0,0,0.05,45.80000000000001,0)" xlink:href="#bl"/><use transform="matrix(0.05,0,0,0.05,55.80000000000001,0)" xlink:href="#bs"/></g><path d="M-5 72V49h209v23H-5" id="bU"/><g id="T"><use transform="matrix(0.05,0,0,0.05,0,0)" xlink:href="#br"/><use transform="matrix(0.05,0,0,0.05,12.950000000000001,0)" xlink:href="#bz"/><use transform="matrix(0.05,0,0,0.05,22.950000000000003,0)" xlink:href="#bs"/><use transform="matrix(0.05,0,0,0.05,27.950000000000003,0)" xlink:href="#bU"/><use transform="matrix(0.05,0,0,0.05,37.95,0)" xlink:href="#bA"/><use transform="matrix(0.05,0,0,0.05,43.900000000000006,0)" xlink:href="#bi"/><use transform="matrix(0.05,0,0,0.05,53.900000000000006,0)" xlink:href="#bk"/></g><g id="U"><use transform="matrix(0.05,0,0,0.05,0,0)" xlink:href="#bM"/><use transform="matrix(0.05,0,0,0.05,10,0)" xlink:href="#bz"/><use transform="matrix(0.05,0,0,0.05,20,0)" xlink:href="#bs"/><use transform="matrix(0.05,0,0,0.05,25,0)" xlink:href="#bi"/></g><g id="V"><use transform="matrix(0.05,0,0,0.05,0,0)" xlink:href="#br"/><use transform="matrix(0.05,0,0,0.05,12.950000000000001,0)" xlink:href="#bz"/><use transform="matrix(0.05,0,0,0.05,22.950000000000003,0)" xlink:href="#bs"/><use transform="matrix(0.05,0,0,0.05,27.950000000000003,0)" xlink:href="#bU"/><use transform="matrix(0.05,0,0,0.05,37.95,0)" xlink:href="#bl"/><use transform="matrix(0.05,0,0,0.05,47.95,0)" xlink:href="#bG"/><use transform="matrix(0.05,0,0,0.05,56.95,0)" xlink:href="#bi"/><use transform="matrix(0.05,0,0,0.05,66.95,0)" xlink:href="#bA"/><use transform="matrix(0.05,0,0,0.05,72.9,0)" xlink:href="#bn"/></g><path d="M153-248C145-148 188 4 80 4 36 3 13-21 6-62l32-5c4 25 16 42 43 43 27 0 39-20 39-49v-147H72v-28h81" id="bV"/><g id="W"><use transform="matrix(0.05,0,0,0.05,0,0)" xlink:href="#bV"/><use transform="matrix(0.05,0,0,0.05,9,0)" xlink:href="#bz"/><use transform="matrix(0.05,0,0,0.05,19,0)" xlink:href="#bw"/><use transform="matrix(0.05,0,0,0.05,29,0)" xlink:href="#bA"/><use transform="matrix(0.05,0,0,0.05,34.95,0)" xlink:href="#bk"/><use transform="matrix(0.05,0,0,0.05,44.95,0)" xlink:href="#bz"/><use transform="matrix(0.05,0,0,0.05,54.95,0)" xlink:href="#bl"/><use transform="matrix(0.05,0,0,0.05,64.95,0)" xlink:href="#bk"/></g><g id="X"><use transform="matrix(0.05,0,0,0.05,0,0)" xlink:href="#bt"/><use transform="matrix(0.05,0,0,0.05,10.950000000000001,0)" xlink:href="#bz"/><use transform="matrix(0.05,0,0,0.05,20.950000000000003,0)" xlink:href="#bi"/><use transform="matrix(0.05,0,0,0.05,30.950000000000003,0)" xlink:href="#bv"/><use transform="matrix(0.05,0,0,0.05,39.95,0)" xlink:href="#bw"/><use transform="matrix(0.05,0,0,0.05,49.95,0)" xlink:href="#bi"/><use transform="matrix(0.05,0,0,0.05,59.95,0)" xlink:href="#bA"/></g><g id="Y"><use transform="matrix(0.05,0,0,0.05,0,0)" xlink:href="#bt"/><use transform="matrix(0.05,0,0,0.05,10.950000000000001,0)" xlink:href="#bz"/><use transform="matrix(0.05,0,0,0.05,20.950000000000003,0)" xlink:href="#bv"/><use transform="matrix(0.05,0,0,0.05,29.950000000000003,0)" xlink:href="#bw"/><use transform="matrix(0.05,0,0,0.05,39.95,0)" xlink:href="#bs"/><use transform="matrix(0.05,0,0,0.05,44.95,0)" xlink:href="#bE"/><use transform="matrix(0.05,0,0,0.05,53.95,0)" xlink:href="#bO"/><use transform="matrix(0.05,0,0,0.05,63.95,0)" xlink:href="#bq"/><use transform="matrix(0.05,0,0,0.05,68.95,0)" xlink:href="#br"/></g><g id="Z"><use transform="matrix(0.05,0,0,0.05,0,0)" xlink:href="#bC"/><use transform="matrix(0.05,0,0,0.05,11,0)" xlink:href="#bi"/><use transform="matrix(0.05,0,0,0.05,21,0)" xlink:href="#bA"/><use transform="matrix(0.05,0,0,0.05,26.950000000000003,0)" xlink:href="#bn"/><use transform="matrix(0.05,0,0,0.05,35.95,0)" xlink:href="#bi"/><use transform="matrix(0.05,0,0,0.05,45.95,0)" xlink:href="#bs"/><use transform="matrix(0.05,0,0,0.05,50.95,0)" xlink:href="#bD"/><use transform="matrix(0.05,0,0,0.05,59.95,0)" xlink:href="#bj"/><use transform="matrix(0.05,0,0,0.05,69.95,0)" xlink:href="#bl"/><use transform="matrix(0.05,0,0,0.05,79.95,0)" xlink:href="#bk"/></g><path d="M127-220V0H93v-220H8v-28h204v28h-85" id="bW"/><path d="M141 0L90-78 38 0H4l68-98-65-92h35l48 74 47-74h35l-64 92 68 98h-35" id="bX"/><g id="aa"><use transform="matrix(0.05,0,0,0.05,0,0)" xlink:href="#bW"/><use transform="matrix(0.05,0,0,0.05,8.950000000000001,0)" xlink:href="#bi"/><use transform="matrix(0.05,0,0,0.05,18.950000000000003,0)" xlink:href="#bX"/><use transform="matrix(0.05,0,0,0.05,27.950000000000003,0)" xlink:href="#bs"/></g><g id="ab"><use transform="matrix(0.05,0,0,0.05,0,0)" xlink:href="#bs"/><use transform="matrix(0.05,0,0,0.05,5,0)" xlink:href="#bE"/><use transform="matrix(0.05,0,0,0.05,14,0)" xlink:href="#bm"/><use transform="matrix(0.05,0,0,0.05,17.95,0)" xlink:href="#bl"/><use transform="matrix(0.05,0,0,0.05,27.950000000000003,0)" xlink:href="#bm"/><use transform="matrix(0.05,0,0,0.05,31.899999999999995,0)" xlink:href="#bl"/><use transform="matrix(0.05,0,0,0.05,41.9,0)" xlink:href="#bs"/></g><g id="ac"><use transform="matrix(0.05,0,0,0.05,0,0)" xlink:href="#bC"/><use transform="matrix(0.05,0,0,0.05,11,0)" xlink:href="#bi"/><use transform="matrix(0.05,0,0,0.05,21,0)" xlink:href="#bA"/><use transform="matrix(0.05,0,0,0.05,26.950000000000003,0)" xlink:href="#bL"/><use transform="matrix(0.05,0,0,0.05,36.95,0)" xlink:href="#bx"/><use transform="matrix(0.05,0,0,0.05,40.900000000000006,0)" xlink:href="#bi"/><use transform="matrix(0.05,0,0,0.05,50.900000000000006,0)" xlink:href="#bm"/><use transform="matrix(0.05,0,0,0.05,54.85,0)" xlink:href="#bL"/></g><g id="ad"><use transform="matrix(0.05,0,0,0.05,0,0)" xlink:href="#bu"/><use transform="matrix(0.05,0,0,0.05,12,0)" xlink:href="#bv"/><use transform="matrix(0.05,0,0,0.05,21,0)" xlink:href="#bw"/><use transform="matrix(0.05,0,0,0.05,31,0)" xlink:href="#bj"/><use transform="matrix(0.05,0,0,0.05,41,0)" xlink:href="#bx"/><use transform="matrix(0.05,0,0,0.05,44.95,0)" xlink:href="#by"/><use transform="matrix(0.05,0,0,0.05,48.900000000000006,0)" xlink:href="#bz"/><use transform="matrix(0.05,0,0,0.05,58.900000000000006,0)" xlink:href="#bw"/><use transform="matrix(0.05,0,0,0.05,68.9,0)" xlink:href="#bA"/></g><g id="ae"><use transform="matrix(0.05,0,0,0.05,0,0)" xlink:href="#bV"/><use transform="matrix(0.05,0,0,0.05,9,0)" xlink:href="#bz"/><use transform="matrix(0.05,0,0,0.05,19,0)" xlink:href="#bw"/><use transform="matrix(0.05,0,0,0.05,29,0)" xlink:href="#bA"/></g><path d="M197 0v-115H63V0H30v-248h33v105h134v-105h34V0h-34" id="bY"/><g id="af"><use transform="matrix(0.05,0,0,0.05,0,0)" xlink:href="#bY"/><use transform="matrix(0.05,0,0,0.05,12.950000000000001,0)" xlink:href="#bz"/><use transform="matrix(0.05,0,0,0.05,22.950000000000003,0)" xlink:href="#bx"/><use transform="matrix(0.05,0,0,0.05,26.900000000000002,0)" xlink:href="#bL"/><use transform="matrix(0.05,0,0,0.05,36.900000000000006,0)" xlink:href="#by"/><use transform="matrix(0.05,0,0,0.05,40.85000000000001,0)" xlink:href="#bz"/><use transform="matrix(0.05,0,0,0.05,50.85000000000001,0)" xlink:href="#bw"/><use transform="matrix(0.05,0,0,0.05,60.85,0)" xlink:href="#bA"/></g><g id="ag"><use transform="matrix(0.05,0,0,0.05,0,0)" xlink:href="#bu"/><use transform="matrix(0.05,0,0,0.05,12,0)" xlink:href="#bs"/><use transform="matrix(0.05,0,0,0.05,17,0)" xlink:href="#bz"/><use transform="matrix(0.05,0,0,0.05,27,0)" xlink:href="#bs"/><use transform="matrix(0.05,0,0,0.05,32,0)" xlink:href="#bj"/><use transform="matrix(0.05,0,0,0.05,42,0)" xlink:href="#bn"/></g><g id="ah"><use transform="matrix(0.05,0,0,0.05,0,0)" xlink:href="#bp"/><use transform="matrix(0.05,0,0,0.05,12,0)" xlink:href="#bx"/><use transform="matrix(0.05,0,0,0.05,15.949999999999998,0)" xlink:href="#bz"/><use transform="matrix(0.05,0,0,0.05,25.950000000000003,0)" xlink:href="#bn"/><use transform="matrix(0.05,0,0,0.05,34.95,0)" xlink:href="#bn"/><use transform="matrix(0.05,0,0,0.05,43.95,0)" xlink:href="#bi"/><use transform="matrix(0.05,0,0,0.05,53.95,0)" xlink:href="#bl"/><use transform="matrix(0.05,0,0,0.05,63.95,0)" xlink:href="#bx"/><use transform="matrix(0.05,0,0,0.05,67.9,0)" xlink:href="#bi"/><use transform="matrix(0.05,0,0,0.05,77.9,0)" xlink:href="#bm"/><use transform="matrix(0.05,0,0,0.05,81.85000000000001,0)" xlink:href="#bs"/><use transform="matrix(0.05,0,0,0.05,86.85000000000001,0)" xlink:href="#bj"/><use transform="matrix(0.05,0,0,0.05,96.85000000000001,0)" xlink:href="#bl"/><use transform="matrix(0.05,0,0,0.05,106.85000000000001,0)" xlink:href="#bk"/></g><g id="ai"><use transform="matrix(0.05,0,0,0.05,0,0)" xlink:href="#bN"/><use transform="matrix(0.05,0,0,0.05,10,0)" xlink:href="#bi"/><use transform="matrix(0.05,0,0,0.05,20,0)" xlink:href="#bw"/><use transform="matrix(0.05,0,0,0.05,30,0)" xlink:href="#bA"/><use transform="matrix(0.05,0,0,0.05,35.95,0)" xlink:href="#bi"/><use transform="matrix(0.05,0,0,0.05,45.95,0)" xlink:href="#bA"/><use transform="matrix(0.05,0,0,0.05,51.900000000000006,0)" xlink:href="#bq"/><use transform="matrix(0.05,0,0,0.05,56.900000000000006,0)" xlink:href="#br"/></g><g id="aj"><use transform="matrix(0.05,0,0,0.05,0,0)" xlink:href="#bN"/><use transform="matrix(0.05,0,0,0.05,10,0)" xlink:href="#bi"/><use transform="matrix(0.05,0,0,0.05,20,0)" xlink:href="#bA"/><use transform="matrix(0.05,0,0,0.05,25.950000000000003,0)" xlink:href="#bl"/><use transform="matrix(0.05,0,0,0.05,35.95,0)" xlink:href="#bk"/><use transform="matrix(0.05,0,0,0.05,45.95,0)" xlink:href="#bA"/><use transform="matrix(0.05,0,0,0.05,51.900000000000006,0)" xlink:href="#bj"/><use transform="matrix(0.05,0,0,0.05,61.900000000000006,0)" xlink:href="#bO"/><use transform="matrix(0.05,0,0,0.05,71.9,0)" xlink:href="#bO"/><use transform="matrix(0.05,0,0,0.05,81.9,0)" xlink:href="#bi"/><use transform="matrix(0.05,0,0,0.05,91.9,0)" xlink:href="#bq"/><use transform="matrix(0.05,0,0,0.05,96.9,0)" xlink:href="#br"/></g><g id="ak"><use transform="matrix(0.05,0,0,0.05,0,0)" xlink:href="#bF"/><use transform="matrix(0.05,0,0,0.05,12.950000000000001,0)" xlink:href="#bH"/><use transform="matrix(0.05,0,0,0.05,22.950000000000003,0)" xlink:href="#bs"/><use transform="matrix(0.05,0,0,0.05,27.950000000000003,0)" xlink:href="#bi"/><use transform="matrix(0.05,0,0,0.05,37.95,0)" xlink:href="#bl"/></g><g id="al"><use transform="matrix(0.05,0,0,0.05,0,0)" xlink:href="#bp"/><use transform="matrix(0.05,0,0,0.05,12,0)" xlink:href="#bj"/><use transform="matrix(0.05,0,0,0.05,22,0)" xlink:href="#bA"/><use transform="matrix(0.05,0,0,0.05,27.950000000000003,0)" xlink:href="#bD"/><use transform="matrix(0.05,0,0,0.05,36.95,0)" xlink:href="#bs"/><use transform="matrix(0.05,0,0,0.05,41.95,0)" xlink:href="#bi"/><use transform="matrix(0.05,0,0,0.05,51.95,0)" xlink:href="#bX"/><use transform="matrix(0.05,0,0,0.05,60.95,0)" xlink:href="#bs"/></g><g id="am"><use transform="matrix(0.05,0,0,0.05,0,0)" xlink:href="#bv"/><use transform="matrix(0.05,0,0,0.05,9,0)" xlink:href="#bw"/><use transform="matrix(0.05,0,0,0.05,19,0)" xlink:href="#bz"/><use transform="matrix(0.05,0,0,0.05,29,0)" xlink:href="#bA"/><use transform="matrix(0.05,0,0,0.05,34.95,0)" xlink:href="#bP"/><use transform="matrix(0.05,0,0,0.05,40.900000000000006,0)" xlink:href="#bQ"/><use transform="matrix(0.05,0,0,0.05,50.900000000000006,0)" xlink:href="#bR"/></g><path d="M266 0h-40l-56-210L115 0H75L2-248h35L96-30l15-64 43-154h32l59 218 59-218h35" id="bZ"/><g id="an"><use transform="matrix(0.05,0,0,0.05,0,0)" xlink:href="#bZ"/><use transform="matrix(0.05,0,0,0.05,16.599999999999998,0)" xlink:href="#bi"/><use transform="matrix(0.05,0,0,0.05,26.599999999999994,0)" xlink:href="#bA"/><use transform="matrix(0.05,0,0,0.05,32.55,0)" xlink:href="#bs"/></g><g id="ao"><use transform="matrix(0.05,0,0,0.05,0,0)" xlink:href="#bJ"/><use transform="matrix(0.05,0,0,0.05,5,0)" xlink:href="#bx"/><use transform="matrix(0.05,0,0,0.05,8.95,0)" xlink:href="#bH"/><use transform="matrix(0.05,0,0,0.05,18.95,0)" xlink:href="#bz"/><use transform="matrix(0.05,0,0,0.05,28.950000000000003,0)" xlink:href="#bs"/></g><g id="ap"><use transform="matrix(0.05,0,0,0.05,0,0)" xlink:href="#bh"/><use transform="matrix(0.05,0,0,0.05,10.950000000000001,0)" xlink:href="#bZ"/><use transform="matrix(0.05,0,0,0.05,27.55,0)" xlink:href="#bi"/><use transform="matrix(0.05,0,0,0.05,37.55,0)" xlink:href="#bA"/><use transform="matrix(0.05,0,0,0.05,43.5,0)" xlink:href="#bs"/></g><g id="aq"><use transform="matrix(0.05,0,0,0.05,0,0)" xlink:href="#bp"/><use transform="matrix(0.05,0,0,0.05,12,0)" xlink:href="#bH"/><use transform="matrix(0.05,0,0,0.05,22,0)" xlink:href="#bB"/><use transform="matrix(0.05,0,0,0.05,36.95,0)" xlink:href="#bB"/><use transform="matrix(0.05,0,0,0.05,51.900000000000006,0)" xlink:href="#bi"/><use transform="matrix(0.05,0,0,0.05,61.900000000000006,0)" xlink:href="#bl"/><use transform="matrix(0.05,0,0,0.05,71.9,0)" xlink:href="#bs"/><use transform="matrix(0.05,0,0,0.05,76.9,0)" xlink:href="#bz"/><use transform="matrix(0.05,0,0,0.05,86.9,0)" xlink:href="#bA"/></g><g id="ar"><use transform="matrix(0.05,0,0,0.05,0,0)" xlink:href="#bF"/><use transform="matrix(0.05,0,0,0.05,12.950000000000001,0)" xlink:href="#bH"/><use transform="matrix(0.05,0,0,0.05,22.950000000000003,0)" xlink:href="#bs"/><use transform="matrix(0.05,0,0,0.05,27.950000000000003,0)" xlink:href="#bi"/><use transform="matrix(0.05,0,0,0.05,37.95,0)" xlink:href="#bl"/><use transform="matrix(0.05,0,0,0.05,47.95,0)" xlink:href="#bT"/><use transform="matrix(0.05,0,0,0.05,56.95,0)" xlink:href="#bx"/><use transform="matrix(0.05,0,0,0.05,60.900000000000006,0)" xlink:href="#bz"/><use transform="matrix(0.05,0,0,0.05,70.9,0)" xlink:href="#bn"/><use transform="matrix(0.05,0,0,0.05,79.9,0)" xlink:href="#bn"/><use transform="matrix(0.05,0,0,0.05,88.9,0)" xlink:href="#bi"/></g><g id="as"><use transform="matrix(0.05,0,0,0.05,0,0)" xlink:href="#br"/><use transform="matrix(0.05,0,0,0.05,12.950000000000001,0)" xlink:href="#bz"/><use transform="matrix(0.05,0,0,0.05,22.950000000000003,0)" xlink:href="#bs"/><use transform="matrix(0.05,0,0,0.05,27.950000000000003,0)" xlink:href="#bj"/><use transform="matrix(0.05,0,0,0.05,37.95,0)" xlink:href="#bB"/></g><path d="M206 0h-36l-40-164L89 0H53L-1-190h32L70-26l43-164h34l41 164 42-164h31" id="ca"/><g id="at"><use transform="matrix(0.05,0,0,0.05,0,0)" xlink:href="#bK"/><use transform="matrix(0.05,0,0,0.05,14,0)" xlink:href="#bi"/><use transform="matrix(0.05,0,0,0.05,24,0)" xlink:href="#ca"/><use transform="matrix(0.05,0,0,0.05,36.95,0)" xlink:href="#bm"/><use transform="matrix(0.05,0,0,0.05,40.900000000000006,0)" xlink:href="#bv"/><use transform="matrix(0.05,0,0,0.05,49.900000000000006,0)" xlink:href="#bw"/><use transform="matrix(0.05,0,0,0.05,59.900000000000006,0)" xlink:href="#bs"/></g><g id="au"><use transform="matrix(0.05,0,0,0.05,0,0)" xlink:href="#bS"/><use transform="matrix(0.05,0,0,0.05,12,0)" xlink:href="#bl"/><use transform="matrix(0.05,0,0,0.05,22,0)" xlink:href="#bA"/><use transform="matrix(0.05,0,0,0.05,27.950000000000003,0)" xlink:href="#bi"/><use transform="matrix(0.05,0,0,0.05,37.95,0)" xlink:href="#bM"/><use transform="matrix(0.05,0,0,0.05,47.95,0)" xlink:href="#bi"/></g><g id="av"><use transform="matrix(0.05,0,0,0.05,0,0)" xlink:href="#bt"/><use transform="matrix(0.05,0,0,0.05,10.950000000000001,0)" xlink:href="#bz"/><use transform="matrix(0.05,0,0,0.05,20.950000000000003,0)" xlink:href="#bv"/><use transform="matrix(0.05,0,0,0.05,29.950000000000003,0)" xlink:href="#bw"/><use transform="matrix(0.05,0,0,0.05,39.95,0)" xlink:href="#bs"/><use transform="matrix(0.05,0,0,0.05,44.95,0)" xlink:href="#bE"/><use transform="matrix(0.05,0,0,0.05,53.95,0)" xlink:href="#bO"/></g><g id="aw"><use transform="matrix(0.05,0,0,0.05,0,0)" xlink:href="#bu"/><use transform="matrix(0.05,0,0,0.05,12,0)" xlink:href="#bj"/><use transform="matrix(0.05,0,0,0.05,22,0)" xlink:href="#bL"/><use transform="matrix(0.05,0,0,0.05,32,0)" xlink:href="#bs"/><use transform="matrix(0.05,0,0,0.05,37,0)" xlink:href="#bE"/><use transform="matrix(0.05,0,0,0.05,46,0)" xlink:href="#bO"/></g><g id="ax"><use transform="matrix(0.05,0,0,0.05,0,0)" xlink:href="#bI"/><use transform="matrix(0.05,0,0,0.05,12.950000000000001,0)" xlink:href="#bH"/><use transform="matrix(0.05,0,0,0.05,22.950000000000003,0)" xlink:href="#bx"/><use transform="matrix(0.05,0,0,0.05,26.900000000000002,0)" xlink:href="#bx"/><use transform="matrix(0.05,0,0,0.05,30.85,0)" xlink:href="#bi"/><use transform="matrix(0.05,0,0,0.05,40.85,0)" xlink:href="#bl"/></g><g id="ay"><use transform="matrix(0.05,0,0,0.05,0,0)" xlink:href="#bI"/><use transform="matrix(0.05,0,0,0.05,12.950000000000001,0)" xlink:href="#bH"/><use transform="matrix(0.05,0,0,0.05,22.950000000000003,0)" xlink:href="#bx"/><use transform="matrix(0.05,0,0,0.05,26.900000000000002,0)" xlink:href="#bx"/><use transform="matrix(0.05,0,0,0.05,30.85,0)" xlink:href="#bi"/></g><g id="az"><use transform="matrix(0.05,0,0,0.05,0,0)" xlink:href="#bW"/><use transform="matrix(0.05,0,0,0.05,8.950000000000001,0)" xlink:href="#bi"/><use transform="matrix(0.05,0,0,0.05,18.950000000000003,0)" xlink:href="#bX"/><use transform="matrix(0.05,0,0,0.05,27.950000000000003,0)" xlink:href="#bs"/><use transform="matrix(0.05,0,0,0.05,32.95,0)" xlink:href="#bL"/><use transform="matrix(0.05,0,0,0.05,42.95,0)" xlink:href="#bz"/><use transform="matrix(0.05,0,0,0.05,52.95,0)" xlink:href="#bj"/><use transform="matrix(0.05,0,0,0.05,62.95,0)" xlink:href="#bn"/><use transform="matrix(0.05,0,0,0.05,71.95,0)" xlink:href="#bs"/><use transform="matrix(0.05,0,0,0.05,76.95,0)" xlink:href="#bi"/><use transform="matrix(0.05,0,0,0.05,86.95,0)" xlink:href="#bm"/><use transform="matrix(0.05,0,0,0.05,90.9,0)" xlink:href="#bl"/><use transform="matrix(0.05,0,0,0.05,100.9,0)" xlink:href="#bi"/></g><g id="aA"><use transform="matrix(0.05,0,0,0.05,0,0)" xlink:href="#bY"/><use transform="matrix(0.05,0,0,0.05,12.950000000000001,0)" xlink:href="#bH"/><use transform="matrix(0.05,0,0,0.05,22.950000000000003,0)" xlink:href="#bs"/><use transform="matrix(0.05,0,0,0.05,27.950000000000003,0)" xlink:href="#bT"/><use transform="matrix(0.05,0,0,0.05,36.95,0)" xlink:href="#bi"/><use transform="matrix(0.05,0,0,0.05,46.95,0)" xlink:href="#bE"/></g><g id="aB"><use transform="matrix(0.05,0,0,0.05,0,0)" xlink:href="#bW"/><use transform="matrix(0.05,0,0,0.05,9.950000000000001,0)" xlink:href="#bE"/><use transform="matrix(0.05,0,0,0.05,18.950000000000003,0)" xlink:href="#bO"/></g><g id="aC"><use transform="matrix(0.05,0,0,0.05,0,0)" xlink:href="#br"/><use transform="matrix(0.05,0,0,0.05,12.950000000000001,0)" xlink:href="#bA"/><use transform="matrix(0.05,0,0,0.05,18.900000000000002,0)" xlink:href="#bH"/><use transform="matrix(0.05,0,0,0.05,28.900000000000002,0)" xlink:href="#bO"/><use transform="matrix(0.05,0,0,0.05,38.900000000000006,0)" xlink:href="#br"/><use transform="matrix(0.05,0,0,0.05,51.85,0)" xlink:href="#bH"/><use transform="matrix(0.05,0,0,0.05,61.85,0)" xlink:href="#ca"/><use transform="matrix(0.05,0,0,0.05,74.80000000000001,0)" xlink:href="#bl"/></g><g id="aD"><use transform="matrix(0.05,0,0,0.05,0,0)" xlink:href="#bh"/><use transform="matrix(0.05,0,0,0.05,10.950000000000001,0)" xlink:href="#bi"/><use transform="matrix(0.05,0,0,0.05,20.950000000000003,0)" xlink:href="#bj"/><use transform="matrix(0.05,0,0,0.05,30.950000000000003,0)" xlink:href="#bk"/><use transform="matrix(0.05,0,0,0.05,40.95,0)" xlink:href="#bl"/><use transform="matrix(0.05,0,0,0.05,50.95,0)" xlink:href="#bm"/><use transform="matrix(0.05,0,0,0.05,54.900000000000006,0)" xlink:href="#bn"/><use transform="matrix(0.05,0,0,0.05,63.900000000000006,0)" xlink:href="#bm"/><use transform="matrix(0.05,0,0,0.05,67.85000000000001,0)" xlink:href="#bl"/><use transform="matrix(0.05,0,0,0.05,77.85000000000001,0)" xlink:href="#bJ"/><use transform="matrix(0.05,0,0,0.05,82.85000000000001,0)" xlink:href="#bH"/><use transform="matrix(0.05,0,0,0.05,92.85000000000001,0)" xlink:href="#bA"/><use transform="matrix(0.05,0,0,0.05,98.80000000000001,0)" xlink:href="#bB"/><use transform="matrix(0.05,0,0,0.05,113.75,0)" xlink:href="#bz"/><use transform="matrix(0.05,0,0,0.05,123.75,0)" xlink:href="#bs"/><use transform="matrix(0.05,0,0,0.05,128.75,0)" xlink:href="#bm"/><use transform="matrix(0.05,0,0,0.05,132.7,0)" xlink:href="#bH"/><use transform="matrix(0.05,0,0,0.05,142.7,0)" xlink:href="#bl"/></g><g id="aE"><use transform="matrix(0.05,0,0,0.05,0,0)" xlink:href="#bh"/><use transform="matrix(0.05,0,0,0.05,10.950000000000001,0)" xlink:href="#bz"/><use transform="matrix(0.05,0,0,0.05,20.950000000000003,0)" xlink:href="#bw"/><use transform="matrix(0.05,0,0,0.05,30.950000000000003,0)" xlink:href="#bx"/></g><g id="aF"><use transform="matrix(0.05,0,0,0.05,0,0)" xlink:href="#bq"/><use transform="matrix(0.05,0,0,0.05,5,0)" xlink:href="#bl"/><use transform="matrix(0.05,0,0,0.05,15,0)" xlink:href="#bJ"/><use transform="matrix(0.05,0,0,0.05,20,0)" xlink:href="#bH"/><use transform="matrix(0.05,0,0,0.05,30,0)" xlink:href="#bA"/><use transform="matrix(0.05,0,0,0.05,35.95,0)" xlink:href="#bB"/><use transform="matrix(0.05,0,0,0.05,50.900000000000006,0)" xlink:href="#bz"/><use transform="matrix(0.05,0,0,0.05,60.900000000000006,0)" xlink:href="#bs"/><use transform="matrix(0.05,0,0,0.05,65.9,0)" xlink:href="#bm"/><use transform="matrix(0.05,0,0,0.05,69.85000000000001,0)" xlink:href="#bH"/><use transform="matrix(0.05,0,0,0.05,79.85000000000001,0)" xlink:href="#bl"/><use transform="matrix(0.05,0,0,0.05,89.85000000000001,0)" xlink:href="#bn"/><use transform="matrix(0.05,0,0,0.05,98.85000000000001,0)" xlink:href="#bs"/><use transform="matrix(0.05,0,0,0.05,103.85000000000001,0)" xlink:href="#bE"/><use transform="matrix(0.05,0,0,0.05,112.85000000000001,0)" xlink:href="#bO"/></g><g id="aG"><use transform="matrix(0.05,0,0,0.05,0,0)" xlink:href="#bN"/><use transform="matrix(0.05,0,0,0.05,10,0)" xlink:href="#bi"/><use transform="matrix(0.05,0,0,0.05,20,0)" xlink:href="#bw"/><use transform="matrix(0.05,0,0,0.05,30,0)" xlink:href="#bA"/><use transform="matrix(0.05,0,0,0.05,35.95,0)" xlink:href="#bi"/><use transform="matrix(0.05,0,0,0.05,45.95,0)" xlink:href="#bA"/><use transform="matrix(0.05,0,0,0.05,51.900000000000006,0)" xlink:href="#bt"/><use transform="matrix(0.05,0,0,0.05,62.85,0)" xlink:href="#bz"/><use transform="matrix(0.05,0,0,0.05,72.85000000000001,0)" xlink:href="#bi"/><use transform="matrix(0.05,0,0,0.05,82.85000000000001,0)" xlink:href="#bv"/><use transform="matrix(0.05,0,0,0.05,91.85000000000001,0)" xlink:href="#bw"/><use transform="matrix(0.05,0,0,0.05,101.85000000000001,0)" xlink:href="#bi"/><use transform="matrix(0.05,0,0,0.05,111.85000000000001,0)" xlink:href="#bA"/></g><g id="aH"><use transform="matrix(0.05,0,0,0.05,0,0)" xlink:href="#bo"/><use transform="matrix(0.05,0,0,0.05,12,0)" xlink:href="#bp"/></g><g id="aI"><use transform="matrix(0.05,0,0,0.05,0,0)" xlink:href="#bq"/><use transform="matrix(0.05,0,0,0.05,5,0)" xlink:href="#br"/></g><g id="aJ"><use transform="matrix(0.05,0,0,0.05,0,0)" xlink:href="#bm"/><use transform="matrix(0.05,0,0,0.05,3.95,0)" xlink:href="#bl"/><use transform="matrix(0.05,0,0,0.05,13.949999999999998,0)" xlink:href="#bs"/></g><g id="aK"><use transform="matrix(0.05,0,0,0.05,0,0)" xlink:href="#bt"/><use transform="matrix(0.05,0,0,0.05,10.950000000000001,0)" xlink:href="#bp"/></g><g id="aL"><use transform="matrix(0.05,0,0,0.05,0,0)" xlink:href="#bN"/><use transform="matrix(0.05,0,0,0.05,10,0)" xlink:href="#bi"/><use transform="matrix(0.05,0,0,0.05,20,0)" xlink:href="#bw"/><use transform="matrix(0.05,0,0,0.05,30,0)" xlink:href="#bA"/><use transform="matrix(0.05,0,0,0.05,35.95,0)" xlink:href="#bi"/><use transform="matrix(0.05,0,0,0.05,45.95,0)" xlink:href="#bA"/><use transform="matrix(0.05,0,0,0.05,51.900000000000006,0)" xlink:href="#bq"/><use transform="matrix(0.05,0,0,0.05,56.900000000000006,0)" xlink:href="#br"/></g><g id="aM"><use transform="matrix(0.05,0,0,0.05,0,0)" xlink:href="#bt"/><use transform="matrix(0.05,0,0,0.05,10.950000000000001,0)" xlink:href="#bz"/><use transform="matrix(0.05,0,0,0.05,20.950000000000003,0)" xlink:href="#bi"/><use transform="matrix(0.05,0,0,0.05,30.950000000000003,0)" xlink:href="#bv"/><use transform="matrix(0.05,0,0,0.05,39.95,0)" xlink:href="#bw"/><use transform="matrix(0.05,0,0,0.05,49.95,0)" xlink:href="#bi"/><use transform="matrix(0.05,0,0,0.05,59.95,0)" xlink:href="#bA"/><use transform="matrix(0.05,0,0,0.05,65.9,0)" xlink:href="#bq"/><use transform="matrix(0.05,0,0,0.05,70.9,0)" xlink:href="#br"/></g></defs></g></svg>